<?xml version="1.0" encoding="us-ascii" standalone="no"?><svg xmlns="http://www.w3.org/2000/svg" xmlns:xlink="http://www.w3.org/1999/xlink" contentStyleType="text/css" height="643px" preserveAspectRatio="none" style="width:1760px;height:643px;background:#FFFFFF;" version="1.1" viewBox="0 0 1760 643" width="1760px" zoomAndPan="magnify"><defs/><g><line style="stroke:#181818;stroke-width:0.5;stroke-dasharray:5.0,5.0;" x1="76" x2="76" y1="81.2969" y2="563.1563"/><line style="stroke:#181818;stroke-width:0.5;stroke-dasharray:5.0,5.0;" x1="224" x2="224" y1="81.2969" y2="563.1563"/><line style="stroke:#181818;stroke-width:0.5;stroke-dasharray:5.0,5.0;" x1="348" x2="348" y1="81.2969" y2="563.1563"/><line style="stroke:#181818;stroke-width:0.5;stroke-dasharray:5.0,5.0;" x1="525" x2="525" y1="81.2969" y2="563.1563"/><line style="stroke:#181818;stroke-width:0.5;stroke-dasharray:5.0,5.0;" x1="802.5" x2="802.5" y1="81.2969" y2="563.1563"/><line style="stroke:#181818;stroke-width:0.5;stroke-dasharray:5.0,5.0;" x1="960.5" x2="960.5" y1="81.2969" y2="563.1563"/><line style="stroke:#181818;stroke-width:0.5;stroke-dasharray:5.0,5.0;" x1="1126.5" x2="1126.5" y1="81.2969" y2="563.1563"/><line style="stroke:#181818;stroke-width:0.5;stroke-dasharray:5.0,5.0;" x1="1458.5" x2="1458.5" y1="81.2969" y2="563.1563"/><line style="stroke:#181818;stroke-width:0.5;stroke-dasharray:5.0,5.0;" x1="1715" x2="1715" y1="81.2969" y2="563.1563"/><text fill="#000000" font-family="sans-serif" font-size="14" lengthAdjust="spacing" textLength="136" x="5" y="77.9951">&#34987;&#25511;&#21046;&#30340;DeskServer</text><ellipse cx="76" cy="13.5" fill="#E2E2F0" rx="8" ry="8" style="stroke:#181818;stroke-width:0.5;"/><path d="M76,21.5 L76,48.5 M63,29.5 L89,29.5 M76,48.5 L63,63.5 M76,48.5 L89,63.5 " fill="none" style="stroke:#181818;stroke-width:0.5;"/><text fill="#000000" font-family="sans-serif" font-size="14" lengthAdjust="spacing" textLength="136" x="5" y="575.1514">&#34987;&#25511;&#21046;&#30340;DeskServer</text><ellipse cx="76" cy="586.9531" fill="#E2E2F0" rx="8" ry="8" style="stroke:#181818;stroke-width:0.5;"/><path d="M76,594.9531 L76,621.9531 M63,602.9531 L89,602.9531 M76,621.9531 L63,636.9531 M76,621.9531 L89,636.9531 " fill="none" style="stroke:#181818;stroke-width:0.5;"/><text fill="#000000" font-family="sans-serif" font-size="14" lengthAdjust="spacing" textLength="128" x="157" y="77.9951">&#25511;&#21046;&#31471;DeskControl</text><ellipse cx="224" cy="13.5" fill="#E2E2F0" rx="8" ry="8" style="stroke:#181818;stroke-width:0.5;"/><path d="M224,21.5 L224,48.5 M211,29.5 L237,29.5 M224,48.5 L211,63.5 M224,48.5 L237,63.5 " fill="none" style="stroke:#181818;stroke-width:0.5;"/><text fill="#000000" font-family="sans-serif" font-size="14" lengthAdjust="spacing" textLength="128" x="157" y="575.1514">&#25511;&#21046;&#31471;DeskControl</text><ellipse cx="224" cy="586.9531" fill="#E2E2F0" rx="8" ry="8" style="stroke:#181818;stroke-width:0.5;"/><path d="M224,594.9531 L224,621.9531 M211,602.9531 L237,602.9531 M224,621.9531 L211,636.9531 M224,621.9531 L237,636.9531 " fill="none" style="stroke:#181818;stroke-width:0.5;"/><rect fill="#E2E2F0" height="30.2969" rx="2.5" ry="2.5" style="stroke:#181818;stroke-width:0.5;" width="94" x="301" y="50"/><text fill="#000000" font-family="sans-serif" font-size="14" lengthAdjust="spacing" textLength="80" x="308" y="69.9951">DeskServer</text><rect fill="#E2E2F0" height="30.2969" rx="2.5" ry="2.5" style="stroke:#181818;stroke-width:0.5;" width="94" x="301" y="562.1563"/><text fill="#000000" font-family="sans-serif" font-size="14" lengthAdjust="spacing" textLength="80" x="308" y="582.1514">DeskServer</text><rect fill="#E2E2F0" height="30.2969" rx="2.5" ry="2.5" style="stroke:#181818;stroke-width:0.5;" width="228" x="411" y="50"/><text fill="#000000" font-family="sans-serif" font-size="14" lengthAdjust="spacing" textLength="214" x="418" y="69.9951">RemoteClipboard (DeskServer)</text><rect fill="#E2E2F0" height="30.2969" rx="2.5" ry="2.5" style="stroke:#181818;stroke-width:0.5;" width="228" x="411" y="562.1563"/><text fill="#000000" font-family="sans-serif" font-size="14" lengthAdjust="spacing" textLength="214" x="418" y="582.1514">RemoteClipboard (DeskServer)</text><rect fill="#E2E2F0" height="30.2969" rx="2.5" ry="2.5" style="stroke:#181818;stroke-width:0.5;" width="201" x="702.5" y="50"/><text fill="#000000" font-family="sans-serif" font-size="14" lengthAdjust="spacing" textLength="187" x="709.5" y="69.9951">RelayManager(DeskServer)</text><rect fill="#E2E2F0" height="30.2969" rx="2.5" ry="2.5" style="stroke:#181818;stroke-width:0.5;" width="201" x="702.5" y="562.1563"/><text fill="#000000" font-family="sans-serif" font-size="14" lengthAdjust="spacing" textLength="187" x="709.5" y="582.1514">RelayManager(DeskServer)</text><rect fill="#E2E2F0" height="30.2969" rx="2.5" ry="2.5" style="stroke:#181818;stroke-width:0.5;" width="95" x="913.5" y="50"/><text fill="#000000" font-family="sans-serif" font-size="14" lengthAdjust="spacing" textLength="81" x="920.5" y="69.9951">RelayServer</text><rect fill="#E2E2F0" height="30.2969" rx="2.5" ry="2.5" style="stroke:#181818;stroke-width:0.5;" width="95" x="913.5" y="562.1563"/><text fill="#000000" font-family="sans-serif" font-size="14" lengthAdjust="spacing" textLength="81" x="920.5" y="582.1514">RelayServer</text><rect fill="#E2E2F0" height="30.2969" rx="2.5" ry="2.5" style="stroke:#181818;stroke-width:0.5;" width="216" x="1018.5" y="50"/><text fill="#000000" font-family="sans-serif" font-size="14" lengthAdjust="spacing" textLength="202" x="1025.5" y="69.9951">NetworkWorker(DeskControl)</text><rect fill="#E2E2F0" height="30.2969" rx="2.5" ry="2.5" style="stroke:#181818;stroke-width:0.5;" width="216" x="1018.5" y="562.1563"/><text fill="#000000" font-family="sans-serif" font-size="14" lengthAdjust="spacing" textLength="202" x="1025.5" y="582.1514">NetworkWorker(DeskControl)</text><rect fill="#E2E2F0" height="30.2969" rx="2.5" ry="2.5" style="stroke:#181818;stroke-width:0.5;" width="234" x="1341.5" y="50"/><text fill="#000000" font-family="sans-serif" font-size="14" lengthAdjust="spacing" textLength="220" x="1348.5" y="69.9951">RemoteClipboard (DeskControl)</text><rect fill="#E2E2F0" height="30.2969" rx="2.5" ry="2.5" style="stroke:#181818;stroke-width:0.5;" width="234" x="1341.5" y="562.1563"/><text fill="#000000" font-family="sans-serif" font-size="14" lengthAdjust="spacing" textLength="220" x="1348.5" y="582.1514">RemoteClipboard (DeskControl)</text><rect fill="#E2E2F0" height="30.2969" rx="2.5" ry="2.5" style="stroke:#181818;stroke-width:0.5;" width="65" x="1683" y="50"/><text fill="#000000" font-family="sans-serif" font-size="14" lengthAdjust="spacing" textLength="51" x="1690" y="69.9951">System</text><rect fill="#E2E2F0" height="30.2969" rx="2.5" ry="2.5" style="stroke:#181818;stroke-width:0.5;" width="65" x="1683" y="562.1563"/><text fill="#000000" font-family="sans-serif" font-size="14" lengthAdjust="spacing" textLength="51" x="1690" y="582.1514">System</text><rect fill="#EEEEEE" height="3" style="stroke:#EEEEEE;stroke-width:1.0;" width="1753" x="0" y="111.8633"/><line style="stroke:#000000;stroke-width:1.0;" x1="0" x2="1753" y1="111.8633" y2="111.8633"/><line style="stroke:#000000;stroke-width:1.0;" x1="0" x2="1753" y1="114.8633" y2="114.8633"/><rect fill="#EEEEEE" height="23.1328" style="stroke:#000000;stroke-width:2.0;" width="199" x="777" y="101.2969"/><text fill="#000000" font-family="sans-serif" font-size="13" font-weight="bold" lengthAdjust="spacing" textLength="180" x="783" y="117.3638">DeskServer &#21457;&#36865;&#21098;&#36148;&#26495;&#25968;&#25454;</text><polygon fill="#181818" points="336,151.5625,346,155.5625,336,159.5625,340,155.5625" style="stroke:#181818;stroke-width:1.0;"/><line style="stroke:#181818;stroke-width:1.0;" x1="76" x2="342" y1="155.5625" y2="155.5625"/><text fill="#000000" font-family="sans-serif" font-size="13" lengthAdjust="spacing" textLength="59" x="83" y="150.4966">&#25353; Ctrl+C</text><polygon fill="#181818" points="513,180.6953,523,184.6953,513,188.6953,517,184.6953" style="stroke:#181818;stroke-width:1.0;"/><line style="stroke:#181818;stroke-width:1.0;" x1="348" x2="519" y1="184.6953" y2="184.6953"/><text fill="#000000" font-family="sans-serif" font-size="13" lengthAdjust="spacing" textLength="153" x="355" y="179.6294">eventFilter() &#25429;&#33719; Ctrl+C</text><line style="stroke:#181818;stroke-width:1.0;" x1="525" x2="567" y1="213.8281" y2="213.8281"/><line style="stroke:#181818;stroke-width:1.0;" x1="567" x2="567" y1="213.8281" y2="226.8281"/><line style="stroke:#181818;stroke-width:1.0;" x1="526" x2="567" y1="226.8281" y2="226.8281"/><polygon fill="#181818" points="536,222.8281,526,226.8281,536,230.8281,532,226.8281" style="stroke:#181818;stroke-width:1.0;"/><text fill="#000000" font-family="sans-serif" font-size="13" lengthAdjust="spacing" textLength="117" x="532" y="208.7622">&#35835;&#21462;&#26412;&#22320;&#21098;&#36148;&#26495;&#25968;&#25454;</text><polygon fill="#181818" points="791,251.9609,801,255.9609,791,259.9609,795,255.9609" style="stroke:#181818;stroke-width:1.0;"/><line style="stroke:#181818;stroke-width:1.0;" x1="525" x2="797" y1="255.9609" y2="255.9609"/><text fill="#000000" font-family="sans-serif" font-size="13" lengthAdjust="spacing" textLength="254" x="532" y="250.895">sendClipboardMessage(ClipboardEvent)</text><polygon fill="#181818" points="949,281.0938,959,285.0938,949,289.0938,953,285.0938" style="stroke:#181818;stroke-width:1.0;"/><line style="stroke:#181818;stroke-width:1.0;" x1="803" x2="955" y1="285.0938" y2="285.0938"/><text fill="#000000" font-family="sans-serif" font-size="13" lengthAdjust="spacing" textLength="126" x="810" y="280.0278">&#20256;&#36755; ClipboardEvent</text><rect fill="#EEEEEE" height="3" style="stroke:#EEEEEE;stroke-width:1.0;" width="1753" x="0" y="313.6602"/><line style="stroke:#000000;stroke-width:1.0;" x1="0" x2="1753" y1="313.6602" y2="313.6602"/><line style="stroke:#000000;stroke-width:1.0;" x1="0" x2="1753" y1="316.6602" y2="316.6602"/><rect fill="#EEEEEE" height="23.1328" style="stroke:#000000;stroke-width:2.0;" width="205" x="774" y="303.0938"/><text fill="#000000" font-family="sans-serif" font-size="13" font-weight="bold" lengthAdjust="spacing" textLength="186" x="780" y="319.1606">DeskControl &#25509;&#25910;&#21098;&#36148;&#26495;&#25968;&#25454;</text><polygon fill="#181818" points="1114.5,353.3594,1124.5,357.3594,1114.5,361.3594,1118.5,357.3594" style="stroke:#181818;stroke-width:1.0;"/><line style="stroke:#181818;stroke-width:1.0;" x1="961" x2="1120.5" y1="357.3594" y2="357.3594"/><text fill="#000000" font-family="sans-serif" font-size="13" lengthAdjust="spacing" textLength="126" x="968" y="352.2935">&#25509;&#25910; ClipboardEvent</text><polygon fill="#181818" points="1446.5,382.4922,1456.5,386.4922,1446.5,390.4922,1450.5,386.4922" style="stroke:#181818;stroke-width:1.0;"/><line style="stroke:#181818;stroke-width:1.0;" x1="1126.5" x2="1452.5" y1="386.4922" y2="386.4922"/><text fill="#000000" font-family="sans-serif" font-size="13" lengthAdjust="spacing" textLength="308" x="1133.5" y="381.4263">&#21457;&#23556; clipboardMessageReceived(ClipboardEvent)</text><line style="stroke:#181818;stroke-width:1.0;" x1="1458.5" x2="1500.5" y1="430.7578" y2="430.7578"/><line style="stroke:#181818;stroke-width:1.0;" x1="1500.5" x2="1500.5" y1="430.7578" y2="443.7578"/><line style="stroke:#181818;stroke-width:1.0;" x1="1459.5" x2="1500.5" y1="443.7578" y2="443.7578"/><polygon fill="#181818" points="1469.5,439.7578,1459.5,443.7578,1469.5,447.7578,1465.5,443.7578" style="stroke:#181818;stroke-width:1.0;"/><text fill="#000000" font-family="sans-serif" font-size="13" lengthAdjust="spacing" textLength="243" x="1465.5" y="410.5591">receiveClipboardData(ClipboardEvent)</text><text fill="#000000" font-family="sans-serif" font-size="13" lengthAdjust="spacing" textLength="117" x="1465.5" y="425.6919">&#31995;&#32479;&#21098;&#36148;&#26495;&#25968;&#25454;&#26356;&#26032;</text><rect fill="#EEEEEE" height="3" style="stroke:#EEEEEE;stroke-width:1.0;" width="1753" x="0" y="472.3242"/><line style="stroke:#000000;stroke-width:1.0;" x1="0" x2="1753" y1="472.3242" y2="472.3242"/><line style="stroke:#000000;stroke-width:1.0;" x1="0" x2="1753" y1="475.3242" y2="475.3242"/><rect fill="#EEEEEE" height="23.1328" style="stroke:#000000;stroke-width:2.0;" width="166" x="793.5" y="461.7578"/><text fill="#000000" font-family="sans-serif" font-size="13" font-weight="bold" lengthAdjust="spacing" textLength="147" x="799.5" y="477.8247">DeskControl &#31896;&#36148;&#25805;&#20316;</text><polygon fill="#181818" points="1446.5,512.0234,1456.5,516.0234,1446.5,520.0234,1450.5,516.0234" style="stroke:#181818;stroke-width:1.0;"/><line style="stroke:#181818;stroke-width:1.0;" x1="224" x2="1452.5" y1="516.0234" y2="516.0234"/><text fill="#000000" font-family="sans-serif" font-size="13" lengthAdjust="spacing" textLength="59" x="231" y="510.9575">&#25353; Ctrl+V</text><polygon fill="#181818" points="1703.5,541.1563,1713.5,545.1563,1703.5,549.1563,1707.5,545.1563" style="stroke:#181818;stroke-width:1.0;"/><line style="stroke:#181818;stroke-width:1.0;" x1="1458.5" x2="1709.5" y1="545.1563" y2="545.1563"/><text fill="#000000" font-family="sans-serif" font-size="13" lengthAdjust="spacing" textLength="143" x="1465.5" y="540.0903">&#31896;&#36148;&#26356;&#26032;&#21518;&#30340;&#21098;&#36148;&#26495;&#25968;&#25454;</text><!--SRC=[ZPFDIiD058NtUOfBLotY2mJg9j6TKbBKZI1ZEqXecfJ9KEbEeGiBDbLgYsX54KImOekMkgW_BzDCubkOfDEqIRjmCPixtxdtt3CCob63GC9zw3BhoJuTEjTL6Pk5B2PbJ1A0JDWsCSaAQC9ngDlp8SdGAJ6qa984eOG8LNDg2UaK4h56SZPwhU2YGR6agQK30v4y96TyAX0eqlw2H4ELJQIZGqmMyCnoVCx15gP71Yb48LxSzGvlolSAkqh_y1tHABv6IATXPX7iniNlyObTUtO70tRxmrfzLd-5T5e8yeNLDIyV4TXP3IHAj1L9a8EYdu48k8nrkg5gr7EO0bPlkTR7bFE96UdsHdQZpJelTgSV6nQIcO0qiPuFbzZ4fkc5cWmBw_x4b93X4XwI2EFFU_Ux2L4kt9Md0CnwP9V39SloFjo5978oti-_upjvZ1UTtQz2BcPMmJcibd5-mRGIKPC95a8oeYWksTETzv4pkeivPZS3rkulREUyNVbKipx-wanVS6vW-8OxWHEldgsO51V5gJ3eQfzRtb-B3Vm3]--></g></svg>