<?xml version="1.0" encoding="us-ascii" standalone="no"?><svg xmlns="http://www.w3.org/2000/svg" xmlns:xlink="http://www.w3.org/1999/xlink" contentStyleType="text/css" height="656px" preserveAspectRatio="none" style="width:1615px;height:656px;background:#FFFFFF;" version="1.1" viewBox="0 0 1615 656" width="1615px" zoomAndPan="magnify"><defs/><g><line style="stroke:#181818;stroke-width:0.5;stroke-dasharray:5.0,5.0;" x1="43" x2="43" y1="81.2969" y2="576.1563"/><line style="stroke:#181818;stroke-width:0.5;stroke-dasharray:5.0,5.0;" x1="176" x2="176" y1="81.2969" y2="576.1563"/><line style="stroke:#181818;stroke-width:0.5;stroke-dasharray:5.0,5.0;" x1="388" x2="388" y1="81.2969" y2="576.1563"/><line style="stroke:#181818;stroke-width:0.5;stroke-dasharray:5.0,5.0;" x1="665.5" x2="665.5" y1="81.2969" y2="576.1563"/><line style="stroke:#181818;stroke-width:0.5;stroke-dasharray:5.0,5.0;" x1="828.5" x2="828.5" y1="81.2969" y2="576.1563"/><line style="stroke:#181818;stroke-width:0.5;stroke-dasharray:5.0,5.0;" x1="993.5" x2="993.5" y1="81.2969" y2="576.1563"/><line style="stroke:#181818;stroke-width:0.5;stroke-dasharray:5.0,5.0;" x1="1325.5" x2="1325.5" y1="81.2969" y2="576.1563"/><line style="stroke:#181818;stroke-width:0.5;stroke-dasharray:5.0,5.0;" x1="1582.5" x2="1582.5" y1="81.2969" y2="576.1563"/><text fill="#000000" font-family="sans-serif" font-size="14" lengthAdjust="spacing" textLength="70" x="5" y="77.9951">&#25511;&#21046;&#31471;&#29992;&#25143;</text><ellipse cx="43" cy="13.5" fill="#E2E2F0" rx="8" ry="8" style="stroke:#181818;stroke-width:0.5;"/><path d="M43,21.5 L43,48.5 M30,29.5 L56,29.5 M43,48.5 L30,63.5 M43,48.5 L56,63.5 " fill="none" style="stroke:#181818;stroke-width:0.5;"/><text fill="#000000" font-family="sans-serif" font-size="14" lengthAdjust="spacing" textLength="70" x="5" y="588.1514">&#25511;&#21046;&#31471;&#29992;&#25143;</text><ellipse cx="43" cy="599.9531" fill="#E2E2F0" rx="8" ry="8" style="stroke:#181818;stroke-width:0.5;"/><path d="M43,607.9531 L43,634.9531 M30,615.9531 L56,615.9531 M43,634.9531 L30,649.9531 M43,634.9531 L56,649.9531 " fill="none" style="stroke:#181818;stroke-width:0.5;"/><text fill="#000000" font-family="sans-serif" font-size="14" lengthAdjust="spacing" textLength="164" x="91" y="77.9951">&#34987;&#25511;&#21046;&#30340;DeskServer&#29992;&#25143;</text><ellipse cx="176" cy="13.5" fill="#E2E2F0" rx="8" ry="8" style="stroke:#181818;stroke-width:0.5;"/><path d="M176,21.5 L176,48.5 M163,29.5 L189,29.5 M176,48.5 L163,63.5 M176,48.5 L189,63.5 " fill="none" style="stroke:#181818;stroke-width:0.5;"/><text fill="#000000" font-family="sans-serif" font-size="14" lengthAdjust="spacing" textLength="164" x="91" y="588.1514">&#34987;&#25511;&#21046;&#30340;DeskServer&#29992;&#25143;</text><ellipse cx="176" cy="599.9531" fill="#E2E2F0" rx="8" ry="8" style="stroke:#181818;stroke-width:0.5;"/><path d="M176,607.9531 L176,634.9531 M163,615.9531 L189,615.9531 M176,634.9531 L163,649.9531 M176,634.9531 L189,649.9531 " fill="none" style="stroke:#181818;stroke-width:0.5;"/><rect fill="#E2E2F0" height="30.2969" rx="2.5" ry="2.5" style="stroke:#181818;stroke-width:0.5;" width="234" x="271" y="50"/><text fill="#000000" font-family="sans-serif" font-size="14" lengthAdjust="spacing" textLength="220" x="278" y="69.9951">RemoteClipboard (DeskControl)</text><rect fill="#E2E2F0" height="30.2969" rx="2.5" ry="2.5" style="stroke:#181818;stroke-width:0.5;" width="234" x="271" y="575.1563"/><text fill="#000000" font-family="sans-serif" font-size="14" lengthAdjust="spacing" textLength="220" x="278" y="595.1514">RemoteClipboard (DeskControl)</text><rect fill="#E2E2F0" height="30.2969" rx="2.5" ry="2.5" style="stroke:#181818;stroke-width:0.5;" width="211" x="560.5" y="50"/><text fill="#000000" font-family="sans-serif" font-size="14" lengthAdjust="spacing" textLength="197" x="567.5" y="69.9951">RelayManager (DeskControl)</text><rect fill="#E2E2F0" height="30.2969" rx="2.5" ry="2.5" style="stroke:#181818;stroke-width:0.5;" width="211" x="560.5" y="575.1563"/><text fill="#000000" font-family="sans-serif" font-size="14" lengthAdjust="spacing" textLength="197" x="567.5" y="595.1514">RelayManager (DeskControl)</text><rect fill="#E2E2F0" height="30.2969" rx="2.5" ry="2.5" style="stroke:#181818;stroke-width:0.5;" width="95" x="781.5" y="50"/><text fill="#000000" font-family="sans-serif" font-size="14" lengthAdjust="spacing" textLength="81" x="788.5" y="69.9951">RelayServer</text><rect fill="#E2E2F0" height="30.2969" rx="2.5" ry="2.5" style="stroke:#181818;stroke-width:0.5;" width="95" x="781.5" y="575.1563"/><text fill="#000000" font-family="sans-serif" font-size="14" lengthAdjust="spacing" textLength="81" x="788.5" y="595.1514">RelayServer</text><rect fill="#E2E2F0" height="30.2969" rx="2.5" ry="2.5" style="stroke:#181818;stroke-width:0.5;" width="214" x="886.5" y="50"/><text fill="#000000" font-family="sans-serif" font-size="14" lengthAdjust="spacing" textLength="200" x="893.5" y="69.9951">NetworkWorker (DeskServer)</text><rect fill="#E2E2F0" height="30.2969" rx="2.5" ry="2.5" style="stroke:#181818;stroke-width:0.5;" width="214" x="886.5" y="575.1563"/><text fill="#000000" font-family="sans-serif" font-size="14" lengthAdjust="spacing" textLength="200" x="893.5" y="595.1514">NetworkWorker (DeskServer)</text><rect fill="#E2E2F0" height="30.2969" rx="2.5" ry="2.5" style="stroke:#181818;stroke-width:0.5;" width="228" x="1211.5" y="50"/><text fill="#000000" font-family="sans-serif" font-size="14" lengthAdjust="spacing" textLength="214" x="1218.5" y="69.9951">RemoteClipboard (DeskServer)</text><rect fill="#E2E2F0" height="30.2969" rx="2.5" ry="2.5" style="stroke:#181818;stroke-width:0.5;" width="228" x="1211.5" y="575.1563"/><text fill="#000000" font-family="sans-serif" font-size="14" lengthAdjust="spacing" textLength="214" x="1218.5" y="595.1514">RemoteClipboard (DeskServer)</text><rect fill="#E2E2F0" height="30.2969" rx="2.5" ry="2.5" style="stroke:#181818;stroke-width:0.5;" width="42" x="1561.5" y="50"/><text fill="#000000" font-family="sans-serif" font-size="14" lengthAdjust="spacing" textLength="28" x="1568.5" y="69.9951">&#31995;&#32479;</text><rect fill="#E2E2F0" height="30.2969" rx="2.5" ry="2.5" style="stroke:#181818;stroke-width:0.5;" width="42" x="1561.5" y="575.1563"/><text fill="#000000" font-family="sans-serif" font-size="14" lengthAdjust="spacing" textLength="28" x="1568.5" y="595.1514">&#31995;&#32479;</text><rect fill="#EEEEEE" height="3" style="stroke:#EEEEEE;stroke-width:1.0;" width="1608.5" x="0" y="111.8633"/><line style="stroke:#000000;stroke-width:1.0;" x1="0" x2="1608.5" y1="111.8633" y2="111.8633"/><line style="stroke:#000000;stroke-width:1.0;" x1="0" x2="1608.5" y1="114.8633" y2="114.8633"/><rect fill="#EEEEEE" height="23.1328" style="stroke:#000000;stroke-width:2.0;" width="149" x="729.75" y="101.2969"/><text fill="#000000" font-family="sans-serif" font-size="13" font-weight="bold" lengthAdjust="spacing" textLength="130" x="735.75" y="117.3638">&#25511;&#21046;&#31471;&#21457;&#36865;&#21098;&#36148;&#26495;&#25968;&#25454;</text><polygon fill="#181818" points="376,151.5625,386,155.5625,376,159.5625,380,155.5625" style="stroke:#181818;stroke-width:1.0;"/><line style="stroke:#181818;stroke-width:1.0;" x1="43" x2="382" y1="155.5625" y2="155.5625"/><text fill="#000000" font-family="sans-serif" font-size="13" lengthAdjust="spacing" textLength="59" x="50" y="150.4966">&#25353; Ctrl+C</text><line style="stroke:#181818;stroke-width:1.0;" x1="388" x2="430" y1="184.6953" y2="184.6953"/><line style="stroke:#181818;stroke-width:1.0;" x1="430" x2="430" y1="184.6953" y2="197.6953"/><line style="stroke:#181818;stroke-width:1.0;" x1="389" x2="430" y1="197.6953" y2="197.6953"/><polygon fill="#181818" points="399,193.6953,389,197.6953,399,201.6953,395,197.6953" style="stroke:#181818;stroke-width:1.0;"/><text fill="#000000" font-family="sans-serif" font-size="13" lengthAdjust="spacing" textLength="153" x="395" y="179.6294">eventFilter() &#25429;&#33719; Ctrl+C</text><line style="stroke:#181818;stroke-width:1.0;" x1="388" x2="430" y1="226.8281" y2="226.8281"/><line style="stroke:#181818;stroke-width:1.0;" x1="430" x2="430" y1="226.8281" y2="239.8281"/><line style="stroke:#181818;stroke-width:1.0;" x1="389" x2="430" y1="239.8281" y2="239.8281"/><polygon fill="#181818" points="399,235.8281,389,239.8281,399,243.8281,395,239.8281" style="stroke:#181818;stroke-width:1.0;"/><text fill="#000000" font-family="sans-serif" font-size="13" lengthAdjust="spacing" textLength="117" x="395" y="221.7622">&#35835;&#21462;&#26412;&#22320;&#21098;&#36148;&#26495;&#25968;&#25454;</text><polygon fill="#181818" points="654,264.9609,664,268.9609,654,272.9609,658,268.9609" style="stroke:#181818;stroke-width:1.0;"/><line style="stroke:#181818;stroke-width:1.0;" x1="388" x2="660" y1="268.9609" y2="268.9609"/><text fill="#000000" font-family="sans-serif" font-size="13" lengthAdjust="spacing" textLength="254" x="395" y="263.895">sendClipboardMessage(ClipboardEvent)</text><polygon fill="#181818" points="817,294.0938,827,298.0938,817,302.0938,821,298.0938" style="stroke:#181818;stroke-width:1.0;"/><line style="stroke:#181818;stroke-width:1.0;" x1="666" x2="823" y1="298.0938" y2="298.0938"/><text fill="#000000" font-family="sans-serif" font-size="13" lengthAdjust="spacing" textLength="126" x="673" y="293.0278">&#20256;&#36755; ClipboardEvent</text><rect fill="#EEEEEE" height="3" style="stroke:#EEEEEE;stroke-width:1.0;" width="1608.5" x="0" y="326.6602"/><line style="stroke:#000000;stroke-width:1.0;" x1="0" x2="1608.5" y1="326.6602" y2="326.6602"/><line style="stroke:#000000;stroke-width:1.0;" x1="0" x2="1608.5" y1="329.6602" y2="329.6602"/><rect fill="#EEEEEE" height="23.1328" style="stroke:#000000;stroke-width:2.0;" width="162" x="723.25" y="316.0938"/><text fill="#000000" font-family="sans-serif" font-size="13" font-weight="bold" lengthAdjust="spacing" textLength="143" x="729.25" y="332.1606">&#34987;&#25511;&#21046;&#31471;&#25509;&#25910;&#21098;&#36148;&#26495;&#25968;&#25454;</text><polygon fill="#181818" points="981.5,366.3594,991.5,370.3594,981.5,374.3594,985.5,370.3594" style="stroke:#181818;stroke-width:1.0;"/><line style="stroke:#181818;stroke-width:1.0;" x1="829" x2="987.5" y1="370.3594" y2="370.3594"/><text fill="#000000" font-family="sans-serif" font-size="13" lengthAdjust="spacing" textLength="126" x="836" y="365.2935">&#36716;&#21457; ClipboardEvent</text><polygon fill="#181818" points="1313.5,395.4922,1323.5,399.4922,1313.5,403.4922,1317.5,399.4922" style="stroke:#181818;stroke-width:1.0;"/><line style="stroke:#181818;stroke-width:1.0;" x1="993.5" x2="1319.5" y1="399.4922" y2="399.4922"/><text fill="#000000" font-family="sans-serif" font-size="13" lengthAdjust="spacing" textLength="308" x="1000.5" y="394.4263">&#21457;&#23556; clipboardMessageReceived(ClipboardEvent)</text><line style="stroke:#181818;stroke-width:1.0;" x1="1325.5" x2="1367.5" y1="443.7578" y2="443.7578"/><line style="stroke:#181818;stroke-width:1.0;" x1="1367.5" x2="1367.5" y1="443.7578" y2="456.7578"/><line style="stroke:#181818;stroke-width:1.0;" x1="1326.5" x2="1367.5" y1="456.7578" y2="456.7578"/><polygon fill="#181818" points="1336.5,452.7578,1326.5,456.7578,1336.5,460.7578,1332.5,456.7578" style="stroke:#181818;stroke-width:1.0;"/><text fill="#000000" font-family="sans-serif" font-size="13" lengthAdjust="spacing" textLength="243" x="1332.5" y="423.5591">receiveClipboardData(ClipboardEvent)</text><text fill="#000000" font-family="sans-serif" font-size="13" lengthAdjust="spacing" textLength="117" x="1332.5" y="438.6919">&#26356;&#26032;&#31995;&#32479;&#21098;&#36148;&#26495;&#25968;&#25454;</text><rect fill="#EEEEEE" height="3" style="stroke:#EEEEEE;stroke-width:1.0;" width="1608.5" x="0" y="485.3242"/><line style="stroke:#000000;stroke-width:1.0;" x1="0" x2="1608.5" y1="485.3242" y2="485.3242"/><line style="stroke:#000000;stroke-width:1.0;" x1="0" x2="1608.5" y1="488.3242" y2="488.3242"/><rect fill="#EEEEEE" height="23.1328" style="stroke:#000000;stroke-width:2.0;" width="123" x="742.75" y="474.7578"/><text fill="#000000" font-family="sans-serif" font-size="13" font-weight="bold" lengthAdjust="spacing" textLength="104" x="748.75" y="490.8247">&#34987;&#25511;&#21046;&#31471;&#31896;&#36148;&#25805;&#20316;</text><polygon fill="#181818" points="1313.5,525.0234,1323.5,529.0234,1313.5,533.0234,1317.5,529.0234" style="stroke:#181818;stroke-width:1.0;"/><line style="stroke:#181818;stroke-width:1.0;" x1="176" x2="1319.5" y1="529.0234" y2="529.0234"/><text fill="#000000" font-family="sans-serif" font-size="13" lengthAdjust="spacing" textLength="59" x="183" y="523.9575">&#25353; Ctrl+V</text><polygon fill="#181818" points="1570.5,554.1563,1580.5,558.1563,1570.5,562.1563,1574.5,558.1563" style="stroke:#181818;stroke-width:1.0;"/><line style="stroke:#181818;stroke-width:1.0;" x1="1325.5" x2="1576.5" y1="558.1563" y2="558.1563"/><text fill="#000000" font-family="sans-serif" font-size="13" lengthAdjust="spacing" textLength="143" x="1332.5" y="553.0903">&#31896;&#36148;&#26356;&#26032;&#21518;&#30340;&#21098;&#36148;&#26495;&#25968;&#25454;</text><!--SRC=[ZPDFIm916CRl-oa6Jqhq1GIxR7NJWr9UWfZq9PRMNPaT36y57WnIYrIYZ2A88YMN4ZsOzMNSsUrRDFkdTPiyTDZBEx_dVP_tcLbSe3f1CTPyjEfZkp-qsq-iFeaXRA0j0uWiOHzmxli1SrLR1-CW1wG2HA1pabJ6X2e5fOmrYc9PAEaKP5Kfx-cO557SLSgwHeck9ZnLLjwLHOsAgsciuNqWomJffGBVZaTaW1xgvE0t51Jp_FjfwqlyhfdyRkuVrgCIxboGs6zJUthh7UQg1eMI9ALIA4pMQfr_7HrR9y_EQCHkFbd7P8qNb4f9NiveTSqB8udOwGcIAL5NPCajX7MeW4Ot5PK2YISGQtISvYGABZeumwdLwhBUmEgPmhm5cNP90xHYk6CQ38Ed7WyB6-x4XEIYhYJ8C8dcxtVEnmNwpNdBBbv9VyYQ3wmzNh9lqCThoNFdVcS37exOppqBTk8C1oopXWg2sImKGAb0yQzfEQecFXP2wvXYKRAZiUiHwvh-DOgvYTlPhvVk-KLZFklzN69aO7Y9sw4J_qqaKQ3qPbbdJVu_2RE-0G00]--></g></svg>