<?xml version="1.0" encoding="us-ascii" standalone="no"?><svg xmlns="http://www.w3.org/2000/svg" xmlns:xlink="http://www.w3.org/1999/xlink" contentStyleType="text/css" height="557px" preserveAspectRatio="none" style="width:1187px;height:557px;background:#FFFFFF;" version="1.1" viewBox="0 0 1187 557" width="1187px" zoomAndPan="magnify"><defs/><g><text fill="#000000" font-family="sans-serif" font-size="14" font-weight="bold" lengthAdjust="spacing" textLength="412" x="383.5" y="27.9951">&#36828;&#31243;&#26700;&#38754;&#36755;&#20837;&#25511;&#21046;&#27969;&#31243; (&#40736;&#26631; + &#38190;&#30424;) - &#36890;&#36807; RelayServer &#36716;&#21457;</text><rect fill="#DDDDDD" height="508.3203" style="stroke:#181818;stroke-width:0.5;" width="441.5" x="1" y="43.2969"/><text fill="#000000" font-family="sans-serif" font-size="13" font-weight="bold" lengthAdjust="spacing" textLength="146" x="148.75" y="55.3638">DeskControl (&#23458;&#25143;&#31471;)</text><rect fill="#DDDDDD" height="508.3203" style="stroke:#181818;stroke-width:0.5;" width="225" x="476" y="43.2969"/><text fill="#000000" font-family="sans-serif" font-size="13" font-weight="bold" lengthAdjust="spacing" textLength="169" x="504" y="55.3638">RelayServer (&#20013;&#32487;&#26381;&#21153;&#22120;)</text><rect fill="#DDDDDD" height="508.3203" style="stroke:#181818;stroke-width:0.5;" width="476" x="703" y="43.2969"/><text fill="#000000" font-family="sans-serif" font-size="13" font-weight="bold" lengthAdjust="spacing" textLength="140" x="871" y="55.3638">DeskServer (&#36828;&#31243;&#31471;)</text><line style="stroke:#181818;stroke-width:0.5;stroke-dasharray:5.0,5.0;" x1="90" x2="90" y1="93.7266" y2="517.3203"/><line style="stroke:#181818;stroke-width:0.5;stroke-dasharray:5.0,5.0;" x1="341.5" x2="341.5" y1="93.7266" y2="517.3203"/><line style="stroke:#181818;stroke-width:0.5;stroke-dasharray:5.0,5.0;" x1="588" x2="588" y1="93.7266" y2="517.3203"/><line style="stroke:#181818;stroke-width:0.5;stroke-dasharray:5.0,5.0;" x1="797" x2="797" y1="93.7266" y2="517.3203"/><line style="stroke:#181818;stroke-width:0.5;stroke-dasharray:5.0,5.0;" x1="1040" x2="1040" y1="93.7266" y2="517.3203"/><rect fill="#E2E2F0" height="30.2969" rx="2.5" ry="2.5" style="stroke:#181818;stroke-width:0.5;" width="171" x="5" y="62.4297"/><text fill="#000000" font-family="sans-serif" font-size="14" lengthAdjust="spacing" textLength="157" x="12" y="82.4248">VideoWidget (&#36755;&#20837;&#25429;&#33719;)</text><rect fill="#E2E2F0" height="30.2969" rx="2.5" ry="2.5" style="stroke:#181818;stroke-width:0.5;" width="171" x="5" y="516.3203"/><text fill="#000000" font-family="sans-serif" font-size="14" lengthAdjust="spacing" textLength="157" x="12" y="536.3154">VideoWidget (&#36755;&#20837;&#25429;&#33719;)</text><rect fill="#E2E2F0" height="30.2969" rx="2.5" ry="2.5" style="stroke:#181818;stroke-width:0.5;" width="194" x="244.5" y="62.4297"/><text fill="#000000" font-family="sans-serif" font-size="14" lengthAdjust="spacing" textLength="180" x="251.5" y="82.4248">NetworkWorker (TCP &#20256;&#36755;)</text><rect fill="#E2E2F0" height="30.2969" rx="2.5" ry="2.5" style="stroke:#181818;stroke-width:0.5;" width="194" x="244.5" y="516.3203"/><text fill="#000000" font-family="sans-serif" font-size="14" lengthAdjust="spacing" textLength="180" x="251.5" y="536.3154">NetworkWorker (TCP &#20256;&#36755;)</text><rect fill="#E2E2F0" height="30.2969" rx="2.5" ry="2.5" style="stroke:#181818;stroke-width:0.5;" width="217" x="480" y="62.4297"/><text fill="#000000" font-family="sans-serif" font-size="14" lengthAdjust="spacing" textLength="203" x="487" y="82.4248">ConnectionHandler (&#28040;&#24687;&#36716;&#21457;)</text><rect fill="#E2E2F0" height="30.2969" rx="2.5" ry="2.5" style="stroke:#181818;stroke-width:0.5;" width="217" x="480" y="516.3203"/><text fill="#000000" font-family="sans-serif" font-size="14" lengthAdjust="spacing" textLength="203" x="487" y="536.3154">ConnectionHandler (&#28040;&#24687;&#36716;&#21457;)</text><rect fill="#E2E2F0" height="30.2969" rx="2.5" ry="2.5" style="stroke:#181818;stroke-width:0.5;" width="181" x="707" y="62.4297"/><text fill="#000000" font-family="sans-serif" font-size="14" lengthAdjust="spacing" textLength="167" x="714" y="82.4248">RelayManager (&#28040;&#24687;&#25509;&#25910;)</text><rect fill="#E2E2F0" height="30.2969" rx="2.5" ry="2.5" style="stroke:#181818;stroke-width:0.5;" width="181" x="707" y="516.3203"/><text fill="#000000" font-family="sans-serif" font-size="14" lengthAdjust="spacing" textLength="167" x="714" y="536.3154">RelayManager (&#28040;&#24687;&#25509;&#25910;)</text><rect fill="#E2E2F0" height="30.2969" rx="2.5" ry="2.5" style="stroke:#181818;stroke-width:0.5;" width="269" x="906" y="62.4297"/><text fill="#000000" font-family="sans-serif" font-size="14" lengthAdjust="spacing" textLength="255" x="913" y="82.4248">RemoteInputSimulator (Windows API)</text><rect fill="#E2E2F0" height="30.2969" rx="2.5" ry="2.5" style="stroke:#181818;stroke-width:0.5;" width="269" x="906" y="516.3203"/><text fill="#000000" font-family="sans-serif" font-size="14" lengthAdjust="spacing" textLength="255" x="913" y="536.3154">RemoteInputSimulator (Windows API)</text><rect fill="#EEEEEE" height="3" style="stroke:#EEEEEE;stroke-width:1.0;" width="1180" x="0" y="124.293"/><line style="stroke:#000000;stroke-width:1.0;" x1="0" x2="1180" y1="124.293" y2="124.293"/><line style="stroke:#000000;stroke-width:1.0;" x1="0" x2="1180" y1="127.293" y2="127.293"/><rect fill="#EEEEEE" height="23.1328" style="stroke:#000000;stroke-width:2.0;" width="97" x="541.5" y="113.7266"/><text fill="#000000" font-family="sans-serif" font-size="13" font-weight="bold" lengthAdjust="spacing" textLength="78" x="547.5" y="129.7935">&#25429;&#33719;&#40736;&#26631;&#20107;&#20214;</text><line style="stroke:#181818;stroke-width:1.0;" x1="90.5" x2="132.5" y1="167.9922" y2="167.9922"/><line style="stroke:#181818;stroke-width:1.0;" x1="132.5" x2="132.5" y1="167.9922" y2="180.9922"/><line style="stroke:#181818;stroke-width:1.0;" x1="91.5" x2="132.5" y1="180.9922" y2="180.9922"/><polygon fill="#181818" points="101.5,176.9922,91.5,180.9922,101.5,184.9922,97.5,180.9922" style="stroke:#181818;stroke-width:1.0;"/><text fill="#000000" font-family="sans-serif" font-size="13" lengthAdjust="spacing" textLength="108" x="97.5" y="162.9263">&#29992;&#25143;&#28857;&#20987;/&#31227;&#21160;&#40736;&#26631;</text><polygon fill="#181818" points="329.5,206.125,339.5,210.125,329.5,214.125,333.5,210.125" style="stroke:#181818;stroke-width:1.0;"/><line style="stroke:#181818;stroke-width:1.0;" x1="90.5" x2="335.5" y1="210.125" y2="210.125"/><text fill="#000000" font-family="sans-serif" font-size="13" lengthAdjust="spacing" textLength="209" x="97.5" y="205.0591">&#29983;&#25104; MouseEvent &#24182;&#36890;&#36807; TCP &#21457;&#36865;</text><polygon fill="#181818" points="576.5,235.2578,586.5,239.2578,576.5,243.2578,580.5,239.2578" style="stroke:#181818;stroke-width:1.0;"/><line style="stroke:#181818;stroke-width:1.0;" x1="341.5" x2="582.5" y1="239.2578" y2="239.2578"/><text fill="#000000" font-family="sans-serif" font-size="13" lengthAdjust="spacing" textLength="205" x="348.5" y="234.1919">&#21457;&#36865; MouseEvent &#21040; RelayServer</text><polygon fill="#181818" points="785.5,264.3906,795.5,268.3906,785.5,272.3906,789.5,268.3906" style="stroke:#181818;stroke-width:1.0;"/><line style="stroke:#181818;stroke-width:1.0;" x1="588.5" x2="791.5" y1="268.3906" y2="268.3906"/><text fill="#000000" font-family="sans-serif" font-size="13" lengthAdjust="spacing" textLength="146" x="595.5" y="263.3247">&#36716;&#21457; MouseEvent (TCP)</text><polygon fill="#181818" points="1028.5,293.5234,1038.5,297.5234,1028.5,301.5234,1032.5,297.5234" style="stroke:#181818;stroke-width:1.0;"/><line style="stroke:#181818;stroke-width:1.0;" x1="797.5" x2="1034.5" y1="297.5234" y2="297.5234"/><text fill="#000000" font-family="sans-serif" font-size="13" lengthAdjust="spacing" textLength="219" x="804.5" y="292.4575">&#35843;&#29992; Windows SendInput() &#27169;&#25311;&#40736;&#26631;</text><rect fill="#EEEEEE" height="3" style="stroke:#EEEEEE;stroke-width:1.0;" width="1180" x="0" y="326.0898"/><line style="stroke:#000000;stroke-width:1.0;" x1="0" x2="1180" y1="326.0898" y2="326.0898"/><line style="stroke:#000000;stroke-width:1.0;" x1="0" x2="1180" y1="329.0898" y2="329.0898"/><rect fill="#EEEEEE" height="23.1328" style="stroke:#000000;stroke-width:2.0;" width="97" x="541.5" y="315.5234"/><text fill="#000000" font-family="sans-serif" font-size="13" font-weight="bold" lengthAdjust="spacing" textLength="78" x="547.5" y="331.5903">&#25429;&#33719;&#38190;&#30424;&#20107;&#20214;</text><line style="stroke:#181818;stroke-width:1.0;" x1="90.5" x2="132.5" y1="369.7891" y2="369.7891"/><line style="stroke:#181818;stroke-width:1.0;" x1="132.5" x2="132.5" y1="369.7891" y2="382.7891"/><line style="stroke:#181818;stroke-width:1.0;" x1="91.5" x2="132.5" y1="382.7891" y2="382.7891"/><polygon fill="#181818" points="101.5,378.7891,91.5,382.7891,101.5,386.7891,97.5,382.7891" style="stroke:#181818;stroke-width:1.0;"/><text fill="#000000" font-family="sans-serif" font-size="13" lengthAdjust="spacing" textLength="108" x="97.5" y="364.7231">&#29992;&#25143;&#25353;&#19979;/&#37322;&#25918;&#25353;&#38190;</text><polygon fill="#181818" points="329.5,407.9219,339.5,411.9219,329.5,415.9219,333.5,411.9219" style="stroke:#181818;stroke-width:1.0;"/><line style="stroke:#181818;stroke-width:1.0;" x1="90.5" x2="335.5" y1="411.9219" y2="411.9219"/><text fill="#000000" font-family="sans-serif" font-size="13" lengthAdjust="spacing" textLength="227" x="97.5" y="406.856">&#29983;&#25104; KeyboardEvent &#24182;&#36890;&#36807; TCP &#21457;&#36865;</text><polygon fill="#181818" points="576.5,437.0547,586.5,441.0547,576.5,445.0547,580.5,441.0547" style="stroke:#181818;stroke-width:1.0;"/><line style="stroke:#181818;stroke-width:1.0;" x1="341.5" x2="582.5" y1="441.0547" y2="441.0547"/><text fill="#000000" font-family="sans-serif" font-size="13" lengthAdjust="spacing" textLength="223" x="348.5" y="435.9888">&#21457;&#36865; KeyboardEvent &#21040; RelayServer</text><polygon fill="#181818" points="785.5,466.1875,795.5,470.1875,785.5,474.1875,789.5,470.1875" style="stroke:#181818;stroke-width:1.0;"/><line style="stroke:#181818;stroke-width:1.0;" x1="588.5" x2="791.5" y1="470.1875" y2="470.1875"/><text fill="#000000" font-family="sans-serif" font-size="13" lengthAdjust="spacing" textLength="164" x="595.5" y="465.1216">&#36716;&#21457; KeyboardEvent (TCP)</text><polygon fill="#181818" points="1028.5,495.3203,1038.5,499.3203,1028.5,503.3203,1032.5,499.3203" style="stroke:#181818;stroke-width:1.0;"/><line style="stroke:#181818;stroke-width:1.0;" x1="797.5" x2="1034.5" y1="499.3203" y2="499.3203"/><text fill="#000000" font-family="sans-serif" font-size="13" lengthAdjust="spacing" textLength="219" x="804.5" y="494.2544">&#35843;&#29992; Windows SendInput() &#27169;&#25311;&#25353;&#38190;</text><!--SRC=[hPDVIzjG6CRlyobUUfKmn7kXW-46a-4GEzRhepb8CEQKz5JddTqOpLhjDjR1T0vRGHhOfjuiwkhqo-IS9DzY9__mn7QmVuLSDETzdlSzl-SDDQY98RpU3zmE7sn7dmx3gtVivH7l3fdZyMzDyHxKwBBF-osu0r7lEFZuGOCfYBRsmkiMB68JRLQmlOvj27zyOQ_VAieIUGQb-xY-EaiiQXCJL7Pyo9spuFE9Lb90_6h8fiQoKKCMXT9JGyUaQkWhc8AQTTzv7tRFj1AWEaZ7uzh7c6uGUxKg7Z60-cHs0VpBlZ19jOLZ1LiwYDco0UN9LV_yQp0QylqTrXwmNNVIcE8o5bwc1h4U8aitOnNt7DuyIQ-TDanC5qc3ZhMBUUJTKjo_m95Op2CBhToquDqZtlEa5jdv9FKQeNZEgZLenLXhc8WIuL8rB9rirE7UmbnkCbvsCt2v36a2QUx-zuu_yg1SLkIefkxAqS0C13qt3ldv1MkDfeFXYBNTL7zRLWmj5XvmvmtCaqOTFrZ7uXhimilsAqvKq8sscafH9dmasC8bhIguEAVoVYfoVIxFGSzasolhutNIb49P8fj0MCXFNmW0a9Ek29X9ZQe1TmUySv2naE0ctz8VmUNRh_pppdJKQlFUbVWZB7uJxYEykKIGhVyptrj6VuEuQF5_AMTGVW80]--></g></svg>