<?xml version="1.0" encoding="us-ascii" standalone="no"?><svg xmlns="http://www.w3.org/2000/svg" xmlns:xlink="http://www.w3.org/1999/xlink" contentStyleType="text/css" height="499px" preserveAspectRatio="none" style="width:928px;height:499px;background:#FFFFFF;" version="1.1" viewBox="0 0 928 499" width="928px" zoomAndPan="magnify"><defs/><g><text fill="#000000" font-family="sans-serif" font-size="14" font-weight="bold" lengthAdjust="spacing" textLength="348" x="286.25" y="27.9951">&#36828;&#31243;&#26700;&#38754;&#36755;&#20837;&#25511;&#21046;&#27969;&#31243; (&#40736;&#26631; + &#38190;&#30424;) - &#22522;&#20110; TCP &#20256;&#36755;</text><rect fill="#DDDDDD" height="450.0547" style="stroke:#181818;stroke-width:0.5;" width="441.5" x="1" y="43.2969"/><text fill="#000000" font-family="sans-serif" font-size="13" font-weight="bold" lengthAdjust="spacing" textLength="146" x="148.75" y="55.3638">DeskControl (&#23458;&#25143;&#31471;)</text><rect fill="#DDDDDD" height="450.0547" style="stroke:#181818;stroke-width:0.5;" width="476" x="444.5" y="43.2969"/><text fill="#000000" font-family="sans-serif" font-size="13" font-weight="bold" lengthAdjust="spacing" textLength="140" x="612.5" y="55.3638">DeskServer (&#36828;&#31243;&#31471;)</text><line style="stroke:#181818;stroke-width:0.5;stroke-dasharray:5.0,5.0;" x1="90" x2="90" y1="93.7266" y2="459.0547"/><line style="stroke:#181818;stroke-width:0.5;stroke-dasharray:5.0,5.0;" x1="341.5" x2="341.5" y1="93.7266" y2="459.0547"/><line style="stroke:#181818;stroke-width:0.5;stroke-dasharray:5.0,5.0;" x1="538.5" x2="538.5" y1="93.7266" y2="459.0547"/><line style="stroke:#181818;stroke-width:0.5;stroke-dasharray:5.0,5.0;" x1="781.5" x2="781.5" y1="93.7266" y2="459.0547"/><rect fill="#E2E2F0" height="30.2969" rx="2.5" ry="2.5" style="stroke:#181818;stroke-width:0.5;" width="171" x="5" y="62.4297"/><text fill="#000000" font-family="sans-serif" font-size="14" lengthAdjust="spacing" textLength="157" x="12" y="82.4248">VideoWidget (&#36755;&#20837;&#25429;&#33719;)</text><rect fill="#E2E2F0" height="30.2969" rx="2.5" ry="2.5" style="stroke:#181818;stroke-width:0.5;" width="171" x="5" y="458.0547"/><text fill="#000000" font-family="sans-serif" font-size="14" lengthAdjust="spacing" textLength="157" x="12" y="478.0498">VideoWidget (&#36755;&#20837;&#25429;&#33719;)</text><rect fill="#E2E2F0" height="30.2969" rx="2.5" ry="2.5" style="stroke:#181818;stroke-width:0.5;" width="194" x="244.5" y="62.4297"/><text fill="#000000" font-family="sans-serif" font-size="14" lengthAdjust="spacing" textLength="180" x="251.5" y="82.4248">NetworkWorker (TCP &#20256;&#36755;)</text><rect fill="#E2E2F0" height="30.2969" rx="2.5" ry="2.5" style="stroke:#181818;stroke-width:0.5;" width="194" x="244.5" y="458.0547"/><text fill="#000000" font-family="sans-serif" font-size="14" lengthAdjust="spacing" textLength="180" x="251.5" y="478.0498">NetworkWorker (TCP &#20256;&#36755;)</text><rect fill="#E2E2F0" height="30.2969" rx="2.5" ry="2.5" style="stroke:#181818;stroke-width:0.5;" width="181" x="448.5" y="62.4297"/><text fill="#000000" font-family="sans-serif" font-size="14" lengthAdjust="spacing" textLength="167" x="455.5" y="82.4248">RelayManager (&#28040;&#24687;&#25509;&#25910;)</text><rect fill="#E2E2F0" height="30.2969" rx="2.5" ry="2.5" style="stroke:#181818;stroke-width:0.5;" width="181" x="448.5" y="458.0547"/><text fill="#000000" font-family="sans-serif" font-size="14" lengthAdjust="spacing" textLength="167" x="455.5" y="478.0498">RelayManager (&#28040;&#24687;&#25509;&#25910;)</text><rect fill="#E2E2F0" height="30.2969" rx="2.5" ry="2.5" style="stroke:#181818;stroke-width:0.5;" width="269" x="647.5" y="62.4297"/><text fill="#000000" font-family="sans-serif" font-size="14" lengthAdjust="spacing" textLength="255" x="654.5" y="82.4248">RemoteInputSimulator (Windows API)</text><rect fill="#E2E2F0" height="30.2969" rx="2.5" ry="2.5" style="stroke:#181818;stroke-width:0.5;" width="269" x="647.5" y="458.0547"/><text fill="#000000" font-family="sans-serif" font-size="14" lengthAdjust="spacing" textLength="255" x="654.5" y="478.0498">RemoteInputSimulator (Windows API)</text><rect fill="#EEEEEE" height="3" style="stroke:#EEEEEE;stroke-width:1.0;" width="921.5" x="0" y="124.293"/><line style="stroke:#000000;stroke-width:1.0;" x1="0" x2="921.5" y1="124.293" y2="124.293"/><line style="stroke:#000000;stroke-width:1.0;" x1="0" x2="921.5" y1="127.293" y2="127.293"/><rect fill="#EEEEEE" height="23.1328" style="stroke:#000000;stroke-width:2.0;" width="97" x="412.25" y="113.7266"/><text fill="#000000" font-family="sans-serif" font-size="13" font-weight="bold" lengthAdjust="spacing" textLength="78" x="418.25" y="129.7935">&#25429;&#33719;&#40736;&#26631;&#20107;&#20214;</text><line style="stroke:#181818;stroke-width:1.0;" x1="90.5" x2="132.5" y1="167.9922" y2="167.9922"/><line style="stroke:#181818;stroke-width:1.0;" x1="132.5" x2="132.5" y1="167.9922" y2="180.9922"/><line style="stroke:#181818;stroke-width:1.0;" x1="91.5" x2="132.5" y1="180.9922" y2="180.9922"/><polygon fill="#181818" points="101.5,176.9922,91.5,180.9922,101.5,184.9922,97.5,180.9922" style="stroke:#181818;stroke-width:1.0;"/><text fill="#000000" font-family="sans-serif" font-size="13" lengthAdjust="spacing" textLength="108" x="97.5" y="162.9263">&#29992;&#25143;&#28857;&#20987;/&#31227;&#21160;&#40736;&#26631;</text><polygon fill="#181818" points="329.5,206.125,339.5,210.125,329.5,214.125,333.5,210.125" style="stroke:#181818;stroke-width:1.0;"/><line style="stroke:#181818;stroke-width:1.0;" x1="90.5" x2="335.5" y1="210.125" y2="210.125"/><text fill="#000000" font-family="sans-serif" font-size="13" lengthAdjust="spacing" textLength="209" x="97.5" y="205.0591">&#29983;&#25104; MouseEvent &#24182;&#36890;&#36807; TCP &#21457;&#36865;</text><polygon fill="#181818" points="527,235.2578,537,239.2578,527,243.2578,531,239.2578" style="stroke:#181818;stroke-width:1.0;"/><line style="stroke:#181818;stroke-width:1.0;" x1="341.5" x2="533" y1="239.2578" y2="239.2578"/><text fill="#000000" font-family="sans-serif" font-size="13" lengthAdjust="spacing" textLength="146" x="348.5" y="234.1919">&#20256;&#36755; MouseEvent (TCP)</text><polygon fill="#181818" points="770,264.3906,780,268.3906,770,272.3906,774,268.3906" style="stroke:#181818;stroke-width:1.0;"/><line style="stroke:#181818;stroke-width:1.0;" x1="539" x2="776" y1="268.3906" y2="268.3906"/><text fill="#000000" font-family="sans-serif" font-size="13" lengthAdjust="spacing" textLength="219" x="546" y="263.3247">&#35843;&#29992; Windows SendInput() &#27169;&#25311;&#40736;&#26631;</text><rect fill="#EEEEEE" height="3" style="stroke:#EEEEEE;stroke-width:1.0;" width="921.5" x="0" y="296.957"/><line style="stroke:#000000;stroke-width:1.0;" x1="0" x2="921.5" y1="296.957" y2="296.957"/><line style="stroke:#000000;stroke-width:1.0;" x1="0" x2="921.5" y1="299.957" y2="299.957"/><rect fill="#EEEEEE" height="23.1328" style="stroke:#000000;stroke-width:2.0;" width="97" x="412.25" y="286.3906"/><text fill="#000000" font-family="sans-serif" font-size="13" font-weight="bold" lengthAdjust="spacing" textLength="78" x="418.25" y="302.4575">&#25429;&#33719;&#38190;&#30424;&#20107;&#20214;</text><line style="stroke:#181818;stroke-width:1.0;" x1="90.5" x2="132.5" y1="340.6563" y2="340.6563"/><line style="stroke:#181818;stroke-width:1.0;" x1="132.5" x2="132.5" y1="340.6563" y2="353.6563"/><line style="stroke:#181818;stroke-width:1.0;" x1="91.5" x2="132.5" y1="353.6563" y2="353.6563"/><polygon fill="#181818" points="101.5,349.6563,91.5,353.6563,101.5,357.6563,97.5,353.6563" style="stroke:#181818;stroke-width:1.0;"/><text fill="#000000" font-family="sans-serif" font-size="13" lengthAdjust="spacing" textLength="108" x="97.5" y="335.5903">&#29992;&#25143;&#25353;&#19979;/&#37322;&#25918;&#25353;&#38190;</text><polygon fill="#181818" points="329.5,378.7891,339.5,382.7891,329.5,386.7891,333.5,382.7891" style="stroke:#181818;stroke-width:1.0;"/><line style="stroke:#181818;stroke-width:1.0;" x1="90.5" x2="335.5" y1="382.7891" y2="382.7891"/><text fill="#000000" font-family="sans-serif" font-size="13" lengthAdjust="spacing" textLength="227" x="97.5" y="377.7231">&#29983;&#25104; KeyboardEvent &#24182;&#36890;&#36807; TCP &#21457;&#36865;</text><polygon fill="#181818" points="527,407.9219,537,411.9219,527,415.9219,531,411.9219" style="stroke:#181818;stroke-width:1.0;"/><line style="stroke:#181818;stroke-width:1.0;" x1="341.5" x2="533" y1="411.9219" y2="411.9219"/><text fill="#000000" font-family="sans-serif" font-size="13" lengthAdjust="spacing" textLength="164" x="348.5" y="406.856">&#20256;&#36755; KeyboardEvent (TCP)</text><polygon fill="#181818" points="770,437.0547,780,441.0547,770,445.0547,774,441.0547" style="stroke:#181818;stroke-width:1.0;"/><line style="stroke:#181818;stroke-width:1.0;" x1="539" x2="776" y1="441.0547" y2="441.0547"/><text fill="#000000" font-family="sans-serif" font-size="13" lengthAdjust="spacing" textLength="219" x="546" y="435.9888">&#35843;&#29992; Windows SendInput() &#27169;&#25311;&#25353;&#38190;</text><!--SRC=[hP9TIy9G6CVlzoaUlDe8yLumYEf2meYCl5xj82FRaNdCkiiYD3KhCeXUy0L48QXkMgMYNsOxsxv5PyvewmMA6knYvtd-__FyVy-8J588hD6rsItJPiM-QLd3C-EWJQiTewZHnpmx1zuUD6YZ05DWr-xCgmi1Wc3KUtgl2YkpIw0F6ap4SMju6m9pABCnYnMYuXJmnbsB5f_CstiXm05xqg9Av7KvBIe40gkoX712bfA803-vzUZSgZu90H0pu2b_rYuYaiFgHeAzI0N-VGfNwojpI960pUOPC8xKBKVdvlvclcMK4dTYeY8cdLQg5Md-dbRRjAQvbtZhNwatCK5H9PqbSNapcn89PYu9MP5mBWCpIz4tayzjxmD78k0YSHUWzyfwNuD8XFEo2qvxMK4Op5hNeRxtOXJw8RFJDqfTL_zHvgVe2EkqU08ndCsW-It4OXWlchrxQOqAuqKRnwVsRfxpovYFZrHuiWclZRCWWVErZMLV80g3zR3F4i0RgZYZCUxX1Q3T9YtN9s4yTCP_vQ_eqCgX_bmEsOKIhGtP1xFu8Pq5jBE6HLNwEo2_q_yocaHw1G00]--></g></svg>