<?xml version="1.0" encoding="us-ascii" standalone="no"?><svg xmlns="http://www.w3.org/2000/svg" xmlns:xlink="http://www.w3.org/1999/xlink" contentStyleType="text/css" height="1019px" preserveAspectRatio="none" style="width:882px;height:1019px;background:#FFFFFF;" version="1.1" viewBox="0 0 882 1019" width="882px" zoomAndPan="magnify"><defs/><g><rect fill="none" height="254.1953" style="stroke:#000000;stroke-width:1.5;" width="784" x="10" y="98.2969"/><rect fill="none" height="555.4609" style="stroke:#000000;stroke-width:1.5;" width="847" x="29" y="366.4922"/><rect fill="none" height="213.8672" style="stroke:#000000;stroke-width:1.5;" width="645" x="44" y="534.2891"/><line style="stroke:#181818;stroke-width:0.5;stroke-dasharray:5.0,5.0;" x1="52" x2="52" y1="81.2969" y2="938.9531"/><line style="stroke:#181818;stroke-width:0.5;stroke-dasharray:5.0,5.0;" x1="123" x2="123" y1="81.2969" y2="938.9531"/><line style="stroke:#181818;stroke-width:0.5;stroke-dasharray:5.0,5.0;" x1="230" x2="230" y1="81.2969" y2="938.9531"/><line style="stroke:#181818;stroke-width:0.5;stroke-dasharray:5.0,5.0;" x1="643" x2="643" y1="81.2969" y2="938.9531"/><line style="stroke:#181818;stroke-width:0.5;stroke-dasharray:5.0,5.0;" x1="736" x2="736" y1="81.2969" y2="938.9531"/><text fill="#000000" font-family="sans-serif" font-size="14" lengthAdjust="spacing" textLength="16" x="41.5" y="77.9951">&#29992;&#25143;</text><ellipse cx="52.5" cy="13.5" fill="#E2E2F0" rx="8" ry="8" style="stroke:#181818;stroke-width:0.5;"/><path d="M52.5,21.5 L52.5,48.5 M39.5,29.5 L65.5,29.5 M52.5,48.5 L39.5,63.5 M52.5,48.5 L65.5,63.5 " fill="none" style="stroke:#181818;stroke-width:0.5;"/><text fill="#000000" font-family="sans-serif" font-size="14" lengthAdjust="spacing" textLength="16" x="41.5" y="950.9482">&#29992;&#25143;</text><ellipse cx="52.5" cy="962.75" fill="#E2E2F0" rx="8" ry="8" style="stroke:#181818;stroke-width:0.5;"/><path d="M52.5,970.75 L52.5,997.75 M39.5,978.75 L65.5,978.75 M52.5,997.75 L39.5,1012.75 M52.5,997.75 L65.5,1012.75 " fill="none" style="stroke:#181818;stroke-width:0.5;"/><rect fill="#E2E2F0" height="30.2969" rx="2.5" ry="2.5" style="stroke:#181818;stroke-width:0.5;" width="94" x="76" y="50"/><text fill="#000000" font-family="sans-serif" font-size="14" lengthAdjust="spacing" textLength="80" x="83" y="69.9951">DeskServer</text><rect fill="#E2E2F0" height="30.2969" rx="2.5" ry="2.5" style="stroke:#181818;stroke-width:0.5;" width="94" x="76" y="937.9531"/><text fill="#000000" font-family="sans-serif" font-size="14" lengthAdjust="spacing" textLength="80" x="83" y="957.9482">DeskServer</text><rect fill="#E2E2F0" height="30.2969" rx="2.5" ry="2.5" style="stroke:#181818;stroke-width:0.5;" width="100" x="180" y="50"/><text fill="#000000" font-family="sans-serif" font-size="14" lengthAdjust="spacing" textLength="86" x="187" y="69.9951">DeskControl</text><rect fill="#E2E2F0" height="30.2969" rx="2.5" ry="2.5" style="stroke:#181818;stroke-width:0.5;" width="100" x="180" y="937.9531"/><text fill="#000000" font-family="sans-serif" font-size="14" lengthAdjust="spacing" textLength="86" x="187" y="957.9482">DeskControl</text><rect fill="#E2E2F0" height="30.2969" rx="2.5" ry="2.5" style="stroke:#181818;stroke-width:0.5;" width="72" x="607" y="50"/><text fill="#000000" font-family="sans-serif" font-size="14" lengthAdjust="spacing" textLength="58" x="614" y="69.9951">IDServer</text><rect fill="#E2E2F0" height="30.2969" rx="2.5" ry="2.5" style="stroke:#181818;stroke-width:0.5;" width="72" x="607" y="937.9531"/><text fill="#000000" font-family="sans-serif" font-size="14" lengthAdjust="spacing" textLength="58" x="614" y="957.9482">IDServer</text><rect fill="#E2E2F0" height="30.2969" rx="2.5" ry="2.5" style="stroke:#181818;stroke-width:0.5;" width="95" x="689" y="50"/><text fill="#000000" font-family="sans-serif" font-size="14" lengthAdjust="spacing" textLength="81" x="696" y="69.9951">RelayServer</text><rect fill="#E2E2F0" height="30.2969" rx="2.5" ry="2.5" style="stroke:#181818;stroke-width:0.5;" width="95" x="689" y="937.9531"/><text fill="#000000" font-family="sans-serif" font-size="14" lengthAdjust="spacing" textLength="81" x="696" y="957.9482">RelayServer</text><path d="M10,98.2969 L135,98.2969 L135,105.4297 L125,115.4297 L10,115.4297 L10,98.2969 " fill="#EEEEEE" style="stroke:#000000;stroke-width:1.5;"/><rect fill="none" height="254.1953" style="stroke:#000000;stroke-width:1.5;" width="784" x="10" y="98.2969"/><text fill="#000000" font-family="sans-serif" font-size="13" font-weight="bold" lengthAdjust="spacing" textLength="80" x="25" y="111.3638">&#27880;&#20876;&#38454;&#27573;&#65288;&#33258;&#21160;&#25191;&#34892;&#65289;</text><polygon fill="#181818" points="631,132.5625,641,136.5625,631,140.5625,635,136.5625" style="stroke:#181818;stroke-width:1.0;"/><line style="stroke:#181818;stroke-width:1.0;" x1="123" x2="637" y1="136.5625" y2="136.5625"/><text fill="#000000" font-family="sans-serif" font-size="13" lengthAdjust="spacing" textLength="136" x="130" y="131.4966">RegisterPeer { uuid }</text><path d="M20,149.5625 L20,174.5625 L226,174.5625 L226,159.5625 L216,149.5625 L20,149.5625 " fill="#FEFFDD" style="stroke:#181818;stroke-width:0.5;"/><path d="M216,149.5625 L216,159.5625 L226,159.5625 L216,149.5625 " fill="#FEFFDD" style="stroke:#181818;stroke-width:0.5;"/><text fill="#000000" font-family="sans-serif" font-size="13" lengthAdjust="spacing" textLength="185" x="26" y="166.6294">uuid &#20026; DeskServer &#33258;&#29983;&#25104;&#30340;&#21807;&#19968;&#26631;&#35782;</text><polygon fill="#181818" points="134,211.9609,124,215.9609,134,219.9609,130,215.9609" style="stroke:#181818;stroke-width:1.0;"/><line style="stroke:#181818;stroke-width:1.0;" x1="128" x2="642" y1="215.9609" y2="215.9609"/><text fill="#000000" font-family="sans-serif" font-size="13" lengthAdjust="spacing" textLength="207" x="140" y="195.7622">RegisterPeerResponse { result }</text><text fill="#000000" font-family="sans-serif" font-size="13" lengthAdjust="spacing" textLength="183" x="140" y="210.895">(result: OK / SERVER_ERROR)</text><path d="M539,228.9609 L539,253.9609 L746,253.9609 L746,238.9609 L736,228.9609 L539,228.9609 " fill="#FEFFDD" style="stroke:#181818;stroke-width:0.5;"/><path d="M736,228.9609 L736,238.9609 L746,238.9609 L736,228.9609 " fill="#FEFFDD" style="stroke:#181818;stroke-width:0.5;"/><text fill="#000000" font-family="sans-serif" font-size="13" lengthAdjust="spacing" textLength="186" x="545" y="246.0278">&#21516;&#26102;&#35760;&#24405; DeskServer &#30340; IP &#21644; UUID</text><polygon fill="#181818" points="724.5,276.2266,734.5,280.2266,724.5,284.2266,728.5,280.2266" style="stroke:#181818;stroke-width:1.0;"/><line style="stroke:#181818;stroke-width:1.0;" x1="123" x2="730.5" y1="280.2266" y2="280.2266"/><text fill="#000000" font-family="sans-serif" font-size="13" lengthAdjust="spacing" textLength="121" x="130" y="275.1606">UDP Heartbeat { }</text><polygon fill="#181818" points="134,305.3594,124,309.3594,134,313.3594,130,309.3594" style="stroke:#181818;stroke-width:1.0;"/><line style="stroke:#181818;stroke-width:1.0;" x1="128" x2="735.5" y1="309.3594" y2="309.3594"/><text fill="#000000" font-family="sans-serif" font-size="13" lengthAdjust="spacing" textLength="142" x="140" y="304.2935">UDP Heartbeat (reply)</text><path d="M68,322.3594 L68,347.3594 L177,347.3594 L177,332.3594 L167,322.3594 L68,322.3594 " fill="#FEFFDD" style="stroke:#181818;stroke-width:0.5;"/><path d="M167,322.3594 L167,332.3594 L177,332.3594 L167,322.3594 " fill="#FEFFDD" style="stroke:#181818;stroke-width:0.5;"/><text fill="#000000" font-family="sans-serif" font-size="13" lengthAdjust="spacing" textLength="88" x="74" y="339.4263">&#25910;&#21040;&#22238;&#22797;&#21017;&#35748;&#20026;&#21452;&#26041;&#22312;&#32447;</text><path d="M29,366.4922 L106,366.4922 L106,373.625 L96,383.625 L29,383.625 L29,366.4922 " fill="#EEEEEE" style="stroke:#000000;stroke-width:1.5;"/><rect fill="none" height="555.4609" style="stroke:#000000;stroke-width:1.5;" width="847" x="29" y="366.4922"/><text fill="#000000" font-family="sans-serif" font-size="13" font-weight="bold" lengthAdjust="spacing" textLength="32" x="44" y="379.5591">&#36830;&#25509;&#38454;&#27573;</text><path d="M140,388.625 L140,428.625 L320,428.625 L320,398.625 L310,388.625 L140,388.625 " fill="#FEFFDD" style="stroke:#181818;stroke-width:0.5;"/><path d="M310,388.625 L310,398.625 L320,398.625 L310,388.625 " fill="#FEFFDD" style="stroke:#181818;stroke-width:0.5;"/><text fill="#000000" font-family="sans-serif" font-size="13" lengthAdjust="spacing" textLength="114" x="146" y="405.6919">&#29992;&#25143;&#25805;&#20316; DeskControl</text><text fill="#000000" font-family="sans-serif" font-size="13" lengthAdjust="spacing" textLength="159" x="146" y="420.8247">&#36755;&#20837;&#30446;&#26631; DeskServer &#30340; UUID</text><polygon fill="#181818" points="218,451.0234,228,455.0234,218,459.0234,222,455.0234" style="stroke:#181818;stroke-width:1.0;"/><line style="stroke:#181818;stroke-width:1.0;" x1="52.5" x2="224" y1="455.0234" y2="455.0234"/><text fill="#000000" font-family="sans-serif" font-size="13" lengthAdjust="spacing" textLength="69" x="59.5" y="449.9575">&#36755;&#20837;&#30446;&#26631; UUID</text><path d="M172,468.0234 L172,493.0234 L288,493.0234 L288,478.0234 L278,468.0234 L172,468.0234 " fill="#FEFFDD" style="stroke:#181818;stroke-width:0.5;"/><path d="M278,468.0234 L278,478.0234 L288,478.0234 L278,468.0234 " fill="#FEFFDD" style="stroke:#181818;stroke-width:0.5;"/><text fill="#000000" font-family="sans-serif" font-size="13" lengthAdjust="spacing" textLength="95" x="178" y="485.0903">id &#20026;&#26412;&#27425;&#36830;&#25509;&#30340;&#20869;&#37096;&#26631;&#35782;</text><polygon fill="#181818" points="631,515.2891,641,519.2891,631,523.2891,635,519.2891" style="stroke:#181818;stroke-width:1.0;"/><line style="stroke:#181818;stroke-width:1.0;" x1="230" x2="637" y1="519.2891" y2="519.2891"/><text fill="#000000" font-family="sans-serif" font-size="13" lengthAdjust="spacing" textLength="194" x="237" y="514.2231">PunchHoleRequest { uuid, id }</text><path d="M44,534.2891 L108,534.2891 L108,541.4219 L98,551.4219 L44,551.4219 L44,534.2891 " fill="#EEEEEE" style="stroke:#000000;stroke-width:1.5;"/><rect fill="none" height="213.8672" style="stroke:#000000;stroke-width:1.5;" width="645" x="44" y="534.2891"/><text fill="#000000" font-family="sans-serif" font-size="13" font-weight="bold" lengthAdjust="spacing" textLength="19" x="59" y="547.356">alt</text><text fill="#000000" font-family="sans-serif" font-size="11" font-weight="bold" lengthAdjust="spacing" textLength="112" x="123" y="546.4995">[&#33509; UUID &#19981;&#23384;&#22312;&#25110;&#30446;&#26631;&#31163;&#32447;]</text><polygon fill="#181818" points="241,583.6875,231,587.6875,241,591.6875,237,587.6875" style="stroke:#181818;stroke-width:1.0;"/><line style="stroke:#181818;stroke-width:1.0;" x1="235" x2="642" y1="587.6875" y2="587.6875"/><text fill="#000000" font-family="sans-serif" font-size="13" lengthAdjust="spacing" textLength="358" x="247" y="567.4888">PunchHoleResponse { result = ID_NOT_EXIST / OFFLINE,</text><text fill="#000000" font-family="sans-serif" font-size="13" lengthAdjust="spacing" textLength="188" x="247" y="582.6216">relay_server:"", relay_port:0 }</text><line style="stroke:#000000;stroke-width:1.0;stroke-dasharray:2.0,2.0;" x1="44" x2="689" y1="596.6875" y2="596.6875"/><text fill="#000000" font-family="sans-serif" font-size="11" font-weight="bold" lengthAdjust="spacing" textLength="91" x="49" y="606.8979">[&#33509; UUID &#23384;&#22312;&#19988;&#22312;&#32447;]</text><polygon fill="#181818" points="134,627.625,124,631.625,134,635.625,130,631.625" style="stroke:#181818;stroke-width:1.0;"/><line style="stroke:#181818;stroke-width:1.0;" x1="128" x2="642" y1="631.625" y2="631.625"/><text fill="#000000" font-family="sans-serif" font-size="13" lengthAdjust="spacing" textLength="107" x="140" y="626.5591">PunchHole { id }</text><path d="M54,644.625 L54,684.625 L191,684.625 L191,654.625 L181,644.625 L54,644.625 " fill="#FEFFDD" style="stroke:#181818;stroke-width:0.5;"/><path d="M181,644.625 L181,654.625 L191,654.625 L181,644.625 " fill="#FEFFDD" style="stroke:#181818;stroke-width:0.5;"/><text fill="#000000" font-family="sans-serif" font-size="13" lengthAdjust="spacing" textLength="116" x="60" y="661.6919">&#26816;&#26597; RelayServer &#29366;&#24577;</text><text fill="#000000" font-family="sans-serif" font-size="13" lengthAdjust="spacing" textLength="82" x="60" y="676.8247">&#24182;&#36820;&#22238; Relay &#20449;&#24687;</text><polygon fill="#181818" points="631,707.0234,641,711.0234,631,715.0234,635,711.0234" style="stroke:#181818;stroke-width:1.0;"/><line style="stroke:#181818;stroke-width:1.0;" x1="123" x2="637" y1="711.0234" y2="711.0234"/><text fill="#000000" font-family="sans-serif" font-size="13" lengthAdjust="spacing" textLength="376" x="130" y="705.9575">PunchHoleSent { relay_server, relay_port, result = OK, id }</text><polygon fill="#181818" points="241,736.1563,231,740.1563,241,744.1563,237,740.1563" style="stroke:#181818;stroke-width:1.0;"/><line style="stroke:#181818;stroke-width:1.0;" x1="235" x2="642" y1="740.1563" y2="740.1563"/><text fill="#000000" font-family="sans-serif" font-size="13" lengthAdjust="spacing" textLength="389" x="247" y="735.0903">PunchHoleResponse { relay_server, relay_port, result = OK }</text><polygon fill="#181818" points="724.5,772.2891,734.5,776.2891,724.5,780.2891,728.5,776.2891" style="stroke:#181818;stroke-width:1.0;"/><line style="stroke:#181818;stroke-width:1.0;" x1="230" x2="730.5" y1="776.2891" y2="776.2891"/><text fill="#000000" font-family="sans-serif" font-size="13" lengthAdjust="spacing" textLength="141" x="237" y="771.2231">RequestRelay { uuid }</text><polygon fill="#181818" points="724.5,801.4219,734.5,805.4219,724.5,809.4219,728.5,805.4219" style="stroke:#181818;stroke-width:1.0;"/><line style="stroke:#181818;stroke-width:1.0;" x1="123" x2="730.5" y1="805.4219" y2="805.4219"/><text fill="#000000" font-family="sans-serif" font-size="13" lengthAdjust="spacing" textLength="141" x="130" y="800.356">RequestRelay { uuid }</text><path d="M606,818.4219 L606,858.4219 L866,858.4219 L866,828.4219 L856,818.4219 L606,818.4219 " fill="#FEFFDD" style="stroke:#181818;stroke-width:0.5;"/><path d="M856,818.4219 L856,828.4219 L866,828.4219 L856,818.4219 " fill="#FEFFDD" style="stroke:#181818;stroke-width:0.5;"/><text fill="#000000" font-family="sans-serif" font-size="13" lengthAdjust="spacing" textLength="239" x="612" y="835.4888">&#26681;&#25454; uuid &#21305;&#37197; DeskServer &#19982; DeskControl</text><text fill="#000000" font-family="sans-serif" font-size="13" lengthAdjust="spacing" textLength="64" x="612" y="850.6216">&#24314;&#31435;&#25968;&#25454;&#36716;&#21457;&#36890;&#36947;</text><polygon fill="#181818" points="724.5,880.8203,734.5,884.8203,724.5,888.8203,728.5,884.8203" style="stroke:#181818;stroke-width:1.0;"/><line style="stroke:#181818;stroke-width:1.0;" x1="123" x2="730.5" y1="884.8203" y2="884.8203"/><text fill="#000000" font-family="sans-serif" font-size="13" lengthAdjust="spacing" textLength="32" x="130" y="879.7544">&#25968;&#25454;&#21457;&#36865;</text><polygon fill="#181818" points="241,909.9531,231,913.9531,241,917.9531,237,913.9531" style="stroke:#181818;stroke-width:1.0;"/><line style="stroke:#181818;stroke-width:1.0;" x1="235" x2="735.5" y1="913.9531" y2="913.9531"/><text fill="#000000" font-family="sans-serif" font-size="13" lengthAdjust="spacing" textLength="32" x="247" y="908.8872">&#25968;&#25454;&#25509;&#25910;</text><!--SRC=[ZLDTJzDG6BxlhtYpAqb6zBfHRzOH6WnRMZ1UB5agdE3YqiwsCo66P8i20pP06OX0-8XC5yL1OfmR7-xFx9nsL_m5Jy_PHpkze5VDUSzvtkVZVRKPsp31ALT9uRSWP3JJJisaCffkGqX2raiLcQ-H6GBD0adzjnmnTDiqqhmU2TPboVTO7dwjeBGsxxkWg88mPnhP392VLRnKxEpMIUtNxNN1NVw6LwjavQjxKhozNX4a5KOVUtWYA6WkPTd8Z2DamXl8PbEpi23eXet0eBYKCOZyjDsuX84Se9XE-OWKDfszTxXytcxaoF6oUxuao1nz65n1LiRGBKIRcCZAfcrOIEZt-Ay8iGcu3sfKUHfLab55YIaZFWwCADuiaezrjtQ1RxRzF6XxaEE0FnHXUbgMXAuuXJwPbk8mZgXZpv5cqxuBWjAd5gnH7fdq_4X0jmYaNCU52xn_Y4zBkF39hPrI3_16aUmqyK7LkMm9I9y5vdZFUBTrIDOht7W_MaJipWVPAhLl3i0NV49t_spXnOgpNwCE3ajZclXJHfq21QwpUh0HpueSd96p4yx7YsXfiVEsser8YlJpZsVrcHVZHXefw5KMMNPt1iB0va0GD1gKkrPXVIXi2V_OfTf9OOVtTxvSUJu0_NgvHmAWmw4_elUIax6fPFIPh4xHq6DZOq_aoMWuePlUE2SjfbqCXSB03pA6QOiFA1cKfa1zBfn8kr7kHk6duDT5MpCfNdqetiyvSbG1tnQ1iredkNn2nyswsohJv7aLsgqJaZzd6BxTwVTGaMupYGC1VlRXWVZOHC_PErbs1ppF67rMw6QgiArZINBc_PKUhCN_wmDll3lak4bADLx3nMPdiUGVp7PZFJZ1-EhI-Rv6jY_e8_Vc36-yx-JsElajR-4UZdAtMP5LyhqzZFIEwOpIPHC6-_GN]--></g></svg>