<?xml version="1.0" encoding="us-ascii" standalone="no"?><svg xmlns="http://www.w3.org/2000/svg" xmlns:xlink="http://www.w3.org/1999/xlink" contentStyleType="text/css" height="1019px" preserveAspectRatio="none" style="width:917px;height:1019px;background:#FFFFFF;" version="1.1" viewBox="0 0 917 1019" width="917px" zoomAndPan="magnify"><defs/><g><rect fill="none" height="254.1953" style="stroke:#000000;stroke-width:1.5;" width="807" x="9" y="98.2969"/><rect fill="none" height="555.4609" style="stroke:#000000;stroke-width:1.5;" width="867" x="44" y="366.4922"/><rect fill="none" height="213.8672" style="stroke:#000000;stroke-width:1.5;" width="655" x="56" y="534.2891"/><line style="stroke:#181818;stroke-width:0.5;stroke-dasharray:5.0,5.0;" x1="71" x2="71" y1="81.2969" y2="938.9531"/><line style="stroke:#181818;stroke-width:0.5;stroke-dasharray:5.0,5.0;" x1="145" x2="145" y1="81.2969" y2="938.9531"/><line style="stroke:#181818;stroke-width:0.5;stroke-dasharray:5.0,5.0;" x1="252" x2="252" y1="81.2969" y2="938.9531"/><line style="stroke:#181818;stroke-width:0.5;stroke-dasharray:5.0,5.0;" x1="665" x2="665" y1="81.2969" y2="938.9531"/><line style="stroke:#181818;stroke-width:0.5;stroke-dasharray:5.0,5.0;" x1="758" x2="758" y1="81.2969" y2="938.9531"/><text fill="#000000" font-family="sans-serif" font-size="14" lengthAdjust="spacing" textLength="28" x="54" y="77.9951">&#29992;&#25143;</text><ellipse cx="71" cy="13.5" fill="#E2E2F0" rx="8" ry="8" style="stroke:#181818;stroke-width:0.5;"/><path d="M71,21.5 L71,48.5 M58,29.5 L84,29.5 M71,48.5 L58,63.5 M71,48.5 L84,63.5 " fill="none" style="stroke:#181818;stroke-width:0.5;"/><text fill="#000000" font-family="sans-serif" font-size="14" lengthAdjust="spacing" textLength="28" x="54" y="950.9482">&#29992;&#25143;</text><ellipse cx="71" cy="962.75" fill="#E2E2F0" rx="8" ry="8" style="stroke:#181818;stroke-width:0.5;"/><path d="M71,970.75 L71,997.75 M58,978.75 L84,978.75 M71,997.75 L58,1012.75 M71,997.75 L84,1012.75 " fill="none" style="stroke:#181818;stroke-width:0.5;"/><rect fill="#E2E2F0" height="30.2969" rx="2.5" ry="2.5" style="stroke:#181818;stroke-width:0.5;" width="94" x="98" y="50"/><text fill="#000000" font-family="sans-serif" font-size="14" lengthAdjust="spacing" textLength="80" x="105" y="69.9951">DeskServer</text><rect fill="#E2E2F0" height="30.2969" rx="2.5" ry="2.5" style="stroke:#181818;stroke-width:0.5;" width="94" x="98" y="937.9531"/><text fill="#000000" font-family="sans-serif" font-size="14" lengthAdjust="spacing" textLength="80" x="105" y="957.9482">DeskServer</text><rect fill="#E2E2F0" height="30.2969" rx="2.5" ry="2.5" style="stroke:#181818;stroke-width:0.5;" width="100" x="202" y="50"/><text fill="#000000" font-family="sans-serif" font-size="14" lengthAdjust="spacing" textLength="86" x="209" y="69.9951">DeskControl</text><rect fill="#E2E2F0" height="30.2969" rx="2.5" ry="2.5" style="stroke:#181818;stroke-width:0.5;" width="100" x="202" y="937.9531"/><text fill="#000000" font-family="sans-serif" font-size="14" lengthAdjust="spacing" textLength="86" x="209" y="957.9482">DeskControl</text><rect fill="#E2E2F0" height="30.2969" rx="2.5" ry="2.5" style="stroke:#181818;stroke-width:0.5;" width="72" x="629" y="50"/><text fill="#000000" font-family="sans-serif" font-size="14" lengthAdjust="spacing" textLength="58" x="636" y="69.9951">IDServer</text><rect fill="#E2E2F0" height="30.2969" rx="2.5" ry="2.5" style="stroke:#181818;stroke-width:0.5;" width="72" x="629" y="937.9531"/><text fill="#000000" font-family="sans-serif" font-size="14" lengthAdjust="spacing" textLength="58" x="636" y="957.9482">IDServer</text><rect fill="#E2E2F0" height="30.2969" rx="2.5" ry="2.5" style="stroke:#181818;stroke-width:0.5;" width="95" x="711" y="50"/><text fill="#000000" font-family="sans-serif" font-size="14" lengthAdjust="spacing" textLength="81" x="718" y="69.9951">RelayServer</text><rect fill="#E2E2F0" height="30.2969" rx="2.5" ry="2.5" style="stroke:#181818;stroke-width:0.5;" width="95" x="711" y="937.9531"/><text fill="#000000" font-family="sans-serif" font-size="14" lengthAdjust="spacing" textLength="81" x="718" y="957.9482">RelayServer</text><path d="M9,98.2969 L184,98.2969 L184,105.4297 L174,115.4297 L9,115.4297 L9,98.2969 " fill="#EEEEEE" style="stroke:#000000;stroke-width:1.5;"/><rect fill="none" height="254.1953" style="stroke:#000000;stroke-width:1.5;" width="807" x="9" y="98.2969"/><text fill="#000000" font-family="sans-serif" font-size="13" font-weight="bold" lengthAdjust="spacing" textLength="130" x="24" y="111.3638">&#27880;&#20876;&#38454;&#27573;&#65288;&#33258;&#21160;&#25191;&#34892;&#65289;</text><polygon fill="#181818" points="653,132.5625,663,136.5625,653,140.5625,657,136.5625" style="stroke:#181818;stroke-width:1.0;"/><line style="stroke:#181818;stroke-width:1.0;" x1="145" x2="659" y1="136.5625" y2="136.5625"/><text fill="#000000" font-family="sans-serif" font-size="13" lengthAdjust="spacing" textLength="136" x="152" y="131.4966">RegisterPeer { uuid }</text><path d="M19,149.5625 L19,174.5625 L270,174.5625 L270,159.5625 L260,149.5625 L19,149.5625 " fill="#FEFFDD" style="stroke:#181818;stroke-width:0.5;"/><path d="M260,149.5625 L260,159.5625 L270,159.5625 L260,149.5625 " fill="#FEFFDD" style="stroke:#181818;stroke-width:0.5;"/><text fill="#000000" font-family="sans-serif" font-size="13" lengthAdjust="spacing" textLength="230" x="25" y="166.6294">uuid &#20026; DeskServer &#33258;&#29983;&#25104;&#30340;&#21807;&#19968;&#26631;&#35782;</text><polygon fill="#181818" points="156,211.9609,146,215.9609,156,219.9609,152,215.9609" style="stroke:#181818;stroke-width:1.0;"/><line style="stroke:#181818;stroke-width:1.0;" x1="150" x2="664" y1="215.9609" y2="215.9609"/><text fill="#000000" font-family="sans-serif" font-size="13" lengthAdjust="spacing" textLength="207" x="162" y="195.7622">RegisterPeerResponse { result }</text><text fill="#000000" font-family="sans-serif" font-size="13" lengthAdjust="spacing" textLength="183" x="162" y="210.895">(result: OK / SERVER_ERROR)</text><path d="M546,228.9609 L546,253.9609 L783,253.9609 L783,238.9609 L773,228.9609 L546,228.9609 " fill="#FEFFDD" style="stroke:#181818;stroke-width:0.5;"/><path d="M773,228.9609 L773,238.9609 L783,238.9609 L773,228.9609 " fill="#FEFFDD" style="stroke:#181818;stroke-width:0.5;"/><text fill="#000000" font-family="sans-serif" font-size="13" lengthAdjust="spacing" textLength="216" x="552" y="246.0278">&#21516;&#26102;&#35760;&#24405; DeskServer &#30340; IP &#21644; UUID</text><polygon fill="#181818" points="746.5,276.2266,756.5,280.2266,746.5,284.2266,750.5,280.2266" style="stroke:#181818;stroke-width:1.0;"/><line style="stroke:#181818;stroke-width:1.0;" x1="145" x2="752.5" y1="280.2266" y2="280.2266"/><text fill="#000000" font-family="sans-serif" font-size="13" lengthAdjust="spacing" textLength="121" x="152" y="275.1606">UDP Heartbeat { }</text><polygon fill="#181818" points="156,305.3594,146,309.3594,156,313.3594,152,309.3594" style="stroke:#181818;stroke-width:1.0;"/><line style="stroke:#181818;stroke-width:1.0;" x1="150" x2="757.5" y1="309.3594" y2="309.3594"/><text fill="#000000" font-family="sans-serif" font-size="13" lengthAdjust="spacing" textLength="142" x="162" y="304.2935">UDP Heartbeat (reply)</text><path d="M63,322.3594 L63,347.3594 L227,347.3594 L227,332.3594 L217,322.3594 L63,322.3594 " fill="#FEFFDD" style="stroke:#181818;stroke-width:0.5;"/><path d="M217,322.3594 L217,332.3594 L227,332.3594 L217,322.3594 " fill="#FEFFDD" style="stroke:#181818;stroke-width:0.5;"/><text fill="#000000" font-family="sans-serif" font-size="13" lengthAdjust="spacing" textLength="143" x="69" y="339.4263">&#25910;&#21040;&#22238;&#22797;&#21017;&#35748;&#20026;&#21452;&#26041;&#22312;&#32447;</text><path d="M44,366.4922 L141,366.4922 L141,373.625 L131,383.625 L44,383.625 L44,366.4922 " fill="#EEEEEE" style="stroke:#000000;stroke-width:1.5;"/><rect fill="none" height="555.4609" style="stroke:#000000;stroke-width:1.5;" width="867" x="44" y="366.4922"/><text fill="#000000" font-family="sans-serif" font-size="13" font-weight="bold" lengthAdjust="spacing" textLength="52" x="59" y="379.5591">&#36830;&#25509;&#38454;&#27573;</text><path d="M149,388.625 L149,428.625 L354,428.625 L354,398.625 L344,388.625 L149,388.625 " fill="#FEFFDD" style="stroke:#181818;stroke-width:0.5;"/><path d="M344,388.625 L344,398.625 L354,398.625 L344,388.625 " fill="#FEFFDD" style="stroke:#181818;stroke-width:0.5;"/><text fill="#000000" font-family="sans-serif" font-size="13" lengthAdjust="spacing" textLength="134" x="155" y="405.6919">&#29992;&#25143;&#25805;&#20316; DeskControl</text><text fill="#000000" font-family="sans-serif" font-size="13" lengthAdjust="spacing" textLength="184" x="155" y="420.8247">&#36755;&#20837;&#30446;&#26631; DeskServer &#30340; UUID</text><polygon fill="#181818" points="240,451.0234,250,455.0234,240,459.0234,244,455.0234" style="stroke:#181818;stroke-width:1.0;"/><line style="stroke:#181818;stroke-width:1.0;" x1="71" x2="246" y1="455.0234" y2="455.0234"/><text fill="#000000" font-family="sans-serif" font-size="13" lengthAdjust="spacing" textLength="89" x="78" y="449.9575">&#36755;&#20837;&#30446;&#26631; UUID</text><path d="M169,468.0234 L169,493.0234 L335,493.0234 L335,478.0234 L325,468.0234 L169,468.0234 " fill="#FEFFDD" style="stroke:#181818;stroke-width:0.5;"/><path d="M325,468.0234 L325,478.0234 L335,478.0234 L325,468.0234 " fill="#FEFFDD" style="stroke:#181818;stroke-width:0.5;"/><text fill="#000000" font-family="sans-serif" font-size="13" lengthAdjust="spacing" textLength="145" x="175" y="485.0903">id &#20026;&#26412;&#27425;&#36830;&#25509;&#30340;&#20869;&#37096;&#26631;&#35782;</text><polygon fill="#181818" points="653,515.2891,663,519.2891,653,523.2891,657,519.2891" style="stroke:#181818;stroke-width:1.0;"/><line style="stroke:#181818;stroke-width:1.0;" x1="252" x2="659" y1="519.2891" y2="519.2891"/><text fill="#000000" font-family="sans-serif" font-size="13" lengthAdjust="spacing" textLength="194" x="259" y="514.2231">PunchHoleRequest { uuid, id }</text><path d="M56,534.2891 L120,534.2891 L120,541.4219 L110,551.4219 L56,551.4219 L56,534.2891 " fill="#EEEEEE" style="stroke:#000000;stroke-width:1.5;"/><rect fill="none" height="213.8672" style="stroke:#000000;stroke-width:1.5;" width="655" x="56" y="534.2891"/><text fill="#000000" font-family="sans-serif" font-size="13" font-weight="bold" lengthAdjust="spacing" textLength="19" x="71" y="547.356">alt</text><text fill="#000000" font-family="sans-serif" font-size="11" font-weight="bold" lengthAdjust="spacing" textLength="148" x="135" y="546.4995">[&#33509; UUID &#19981;&#23384;&#22312;&#25110;&#30446;&#26631;&#31163;&#32447;]</text><polygon fill="#181818" points="263,583.6875,253,587.6875,263,591.6875,259,587.6875" style="stroke:#181818;stroke-width:1.0;"/><line style="stroke:#181818;stroke-width:1.0;" x1="257" x2="664" y1="587.6875" y2="587.6875"/><text fill="#000000" font-family="sans-serif" font-size="13" lengthAdjust="spacing" textLength="358" x="269" y="567.4888">PunchHoleResponse { result = ID_NOT_EXIST / OFFLINE,</text><text fill="#000000" font-family="sans-serif" font-size="13" lengthAdjust="spacing" textLength="188" x="269" y="582.6216">relay_server:"", relay_port:0 }</text><line style="stroke:#000000;stroke-width:1.0;stroke-dasharray:2.0,2.0;" x1="56" x2="711" y1="596.6875" y2="596.6875"/><text fill="#000000" font-family="sans-serif" font-size="11" font-weight="bold" lengthAdjust="spacing" textLength="115" x="61" y="606.8979">[&#33509; UUID &#23384;&#22312;&#19988;&#22312;&#32447;]</text><polygon fill="#181818" points="156,627.625,146,631.625,156,635.625,152,631.625" style="stroke:#181818;stroke-width:1.0;"/><line style="stroke:#181818;stroke-width:1.0;" x1="150" x2="664" y1="631.625" y2="631.625"/><text fill="#000000" font-family="sans-serif" font-size="13" lengthAdjust="spacing" textLength="107" x="162" y="626.5591">PunchHole { id }</text><path d="M66,644.625 L66,684.625 L223,684.625 L223,654.625 L213,644.625 L66,644.625 " fill="#FEFFDD" style="stroke:#181818;stroke-width:0.5;"/><path d="M213,644.625 L213,654.625 L223,654.625 L213,644.625 " fill="#FEFFDD" style="stroke:#181818;stroke-width:0.5;"/><text fill="#000000" font-family="sans-serif" font-size="13" lengthAdjust="spacing" textLength="136" x="72" y="661.6919">&#26816;&#26597; RelayServer &#29366;&#24577;</text><text fill="#000000" font-family="sans-serif" font-size="13" lengthAdjust="spacing" textLength="107" x="72" y="676.8247">&#24182;&#36820;&#22238; Relay &#20449;&#24687;</text><polygon fill="#181818" points="653,707.0234,663,711.0234,653,715.0234,657,711.0234" style="stroke:#181818;stroke-width:1.0;"/><line style="stroke:#181818;stroke-width:1.0;" x1="145" x2="659" y1="711.0234" y2="711.0234"/><text fill="#000000" font-family="sans-serif" font-size="13" lengthAdjust="spacing" textLength="376" x="152" y="705.9575">PunchHoleSent { relay_server, relay_port, result = OK, id }</text><polygon fill="#181818" points="263,736.1563,253,740.1563,263,744.1563,259,740.1563" style="stroke:#181818;stroke-width:1.0;"/><line style="stroke:#181818;stroke-width:1.0;" x1="257" x2="664" y1="740.1563" y2="740.1563"/><text fill="#000000" font-family="sans-serif" font-size="13" lengthAdjust="spacing" textLength="389" x="269" y="735.0903">PunchHoleResponse { relay_server, relay_port, result = OK }</text><polygon fill="#181818" points="746.5,772.2891,756.5,776.2891,746.5,780.2891,750.5,776.2891" style="stroke:#181818;stroke-width:1.0;"/><line style="stroke:#181818;stroke-width:1.0;" x1="252" x2="752.5" y1="776.2891" y2="776.2891"/><text fill="#000000" font-family="sans-serif" font-size="13" lengthAdjust="spacing" textLength="141" x="259" y="771.2231">RequestRelay { uuid }</text><polygon fill="#181818" points="746.5,801.4219,756.5,805.4219,746.5,809.4219,750.5,805.4219" style="stroke:#181818;stroke-width:1.0;"/><line style="stroke:#181818;stroke-width:1.0;" x1="145" x2="752.5" y1="805.4219" y2="805.4219"/><text fill="#000000" font-family="sans-serif" font-size="13" lengthAdjust="spacing" textLength="141" x="152" y="800.356">RequestRelay { uuid }</text><path d="M616,818.4219 L616,858.4219 L901,858.4219 L901,828.4219 L891,818.4219 L616,818.4219 " fill="#FEFFDD" style="stroke:#181818;stroke-width:0.5;"/><path d="M891,818.4219 L891,828.4219 L901,828.4219 L891,818.4219 " fill="#FEFFDD" style="stroke:#181818;stroke-width:0.5;"/><text fill="#000000" font-family="sans-serif" font-size="13" lengthAdjust="spacing" textLength="264" x="622" y="835.4888">&#26681;&#25454; uuid &#21305;&#37197; DeskServer &#19982; DeskControl</text><text fill="#000000" font-family="sans-serif" font-size="13" lengthAdjust="spacing" textLength="104" x="622" y="850.6216">&#24314;&#31435;&#25968;&#25454;&#36716;&#21457;&#36890;&#36947;</text><polygon fill="#181818" points="746.5,880.8203,756.5,884.8203,746.5,888.8203,750.5,884.8203" style="stroke:#181818;stroke-width:1.0;"/><line style="stroke:#181818;stroke-width:1.0;" x1="145" x2="752.5" y1="884.8203" y2="884.8203"/><text fill="#000000" font-family="sans-serif" font-size="13" lengthAdjust="spacing" textLength="52" x="152" y="879.7544">&#25968;&#25454;&#21457;&#36865;</text><polygon fill="#181818" points="263,909.9531,253,913.9531,263,917.9531,259,913.9531" style="stroke:#181818;stroke-width:1.0;"/><line style="stroke:#181818;stroke-width:1.0;" x1="257" x2="757.5" y1="913.9531" y2="913.9531"/><text fill="#000000" font-family="sans-serif" font-size="13" lengthAdjust="spacing" textLength="52" x="269" y="908.8872">&#25968;&#25454;&#25509;&#25910;</text><!--SRC=[ZLDTJzDG6BxlhtYpAqb6zBfHRzOH6WnRMZ1UB5agdE3YqiwsCo66P8i20pP06OX0-8XC5yL1OfmR7-xFx9nsL_m5Jy_PHpkze5VDUSzvtkVZVRKPsp31ALT9uRSWP3JJJisaCffkGqX2raiLcQ-H6GBD0adzjnmnTDiqqhmU2TPboVTO7dwjeBGsxxkWg88mPnhP392VLRnKxEpMIUtNxNN1NVw6LwjavQjxKhozNX4a5KOVUtWYA6WkPTd8Z2DamXl8PbEpi23eXet0eBYKCOZyjDsuX84Se9XE-OWKDfszTxXytcxaoF6oUxuao1nz65n1LiRGBKIRcCZAfcrOIEZt-Ay8iGcu3sfKUHfLab55YIaZFWwCADuiaezrjtQ1RxRzF6XxaEE0FnHXUbgMXAuuXJwPbk8mZgXZpv5cqxuBWjAd5gnH7fdq_4X0jmYaNCU52xn_Y4zBkF39hPrI3_16aUmqyK7LkMm9I9y5vdZFUBTrIDOht7W_MaJipWVPAhLl3i0NV49t_spXnOgpNwCE3ajZclXJHfq21QwpUh0HpueSd96p4yx7YsXfiVEsser8YlJpZsVrcHVZHXefw5KMMNPt1iB0va0GD1gKkrPXVIXi2V_OfTf9OOVtTxvSUJu0_NgvHmAWmw4_elUIax6fPFIPh4xHq6DZOq_aoMWuePlUE2SjfbqCXSB03pA6QOiFA1cKfa1zBfn8kr7kHk6duDT5MpCfNdqetiyvSbG1tnQ1iredkNn2nyswsohJv7aLsgqJaZzd6BxTwVTGaMupYGC1VlRXWVZOHC_PErbs1ppF67rMw6QgiArZINBc_PKUhCN_wmDll3lak4bADLx3nMPdiUGVp7PZFJZ1-EhI-Rv6jY_e8_Vc36-yx-JsElajR-4UZdAtMP5LyhqzZFIEwOpIPHC6-_GN]--></g></svg>